# MagicaVoxel @ Ephtracy

# material
mtllib NinjaAimFrontTop.mtl
usemtl palette

# normals
vn -1 0 0
vn 1 0 0
vn 0 0 1
vn 0 0 -1
vn 0 -1 0
vn 0 1 0

# texcoords
vt 0.0605469 0.5
vt 0.369141 0.5
vt 0.521484 0.5
vt 0.701172 0.5
vt 0.845703 0.5
vt 0.876953 0.5
vt 0.958984 0.5
vt 0.974609 0.5
vt 0.986328 0.5
vt 0.990234 0.5
vt 0.994141 0.5

# verts
v -3 0.5 -0
v -3 0.5 -3
v -3 1.5 -0
v -3 1.5 -1
v -3 1.5 -3
v -3 1.5 -4
v -3 3.5 -1
v -3 3.5 -4
v -3 4.5 -1
v -3 4.5 -4
v -2 -5.5 -2
v -2 -5.5 -3
v -2 -4.5 -1
v -2 -4.5 -2
v -2 -4.5 -3
v -2 -4.5 -4
v -2 0.5 1
v -2 0.5 -0
v -2 0.5 -1
v -2 0.5 -3
v -2 1.5 1
v -2 1.5 -0
v -2 1.5 -3
v -2 1.5 -4
v -2 1.5 -5
v -2 3.5 -0
v -2 3.5 -1
v -2 3.5 -4
v -2 3.5 -5
v -2 4.5 -0
v -2 4.5 -1
v -2 4.5 -4
v -2 4.5 -5
v -2 5.5 -1
v -2 5.5 -4
v -1 0.5 2
v -1 0.5 1
v -1 0.5 -4
v -1 0.5 -5
v -1 1.5 2
v -1 1.5 1
v -1 1.5 -4
v -1 1.5 -5
v -1 2.5 -5
v -1 2.5 -6
v -1 3.5 -5
v -1 3.5 -6
v 0 3.5 5
v 0 3.5 4
v 0 4.5 5
v 0 4.5 4
v 1 -5.5 -2
v 1 -5.5 -3
v 1 -4.5 -2
v 1 -4.5 -3
v 1 -3.5 -2
v 1 -3.5 -3
v 1 -2.5 4
v 1 -2.5 3
v 1 -1.5 5
v 1 -1.5 4
v 1 -1.5 3
v 1 -1.5 1
v 1 -1.5 -0
v 1 -0.5 -0
v 1 -0.5 -1
v 1 0.5 5
v 1 0.5 4
v 1 0.5 3
v 1 0.5 1
v 1 0.5 -1
v 1 1.5 4
v 1 1.5 3
v 1 1.5 2
v 1 2.5 6
v 1 2.5 5
v 1 2.5 4
v 1 2.5 3
v 1 2.5 2
v 1 2.5 1
v 1 3.5 5
v 1 3.5 4
v 1 3.5 3
v 1 3.5 2
v 1 3.5 1
v 1 3.5 -0
v 1 4.5 5
v 1 4.5 4
v 1 4.5 3
v 1 4.5 1
v 1 4.5 -0
v 1 5.5 6
v 1 5.5 3
v 2 0.5 1
v 2 0.5 -1
v 2 1.5 1
v 2 1.5 -1
v -1 -5.5 -2
v -1 -5.5 -3
v -1 -4.5 -2
v -1 -4.5 -3
v -1 -3.5 -2
v -1 -3.5 -3
v -1 0.5 -0
v -1 0.5 -1
v -1 1.5 -0
v -1 1.5 -1
v 0 0.5 1
v 0 0.5 -0
v 0 1.5 1
v 0 1.5 -0
v 1 0.5 -4
v 1 0.5 -5
v 1 1.5 -4
v 1 1.5 -5
v 1 2.5 -5
v 1 2.5 -6
v 1 3.5 -5
v 1 3.5 -6
v 2 -5.5 -2
v 2 -5.5 -3
v 2 -4.5 -1
v 2 -4.5 -2
v 2 -4.5 -3
v 2 -4.5 -4
v 2 -2.5 4
v 2 -2.5 3
v 2 -1.5 5
v 2 -1.5 4
v 2 -1.5 3
v 2 -1.5 1
v 2 -1.5 -0
v 2 -0.5 -0
v 2 -0.5 -1
v 2 0.5 5
v 2 0.5 4
v 2 0.5 3
v 2 0.5 1
v 2 0.5 -1
v 2 0.5 -3
v 2 1.5 4
v 2 1.5 3
v 2 1.5 -3
v 2 1.5 -4
v 2 1.5 -5
v 2 2.5 6
v 2 2.5 5
v 2 2.5 4
v 2 2.5 3
v 2 2.5 2
v 2 2.5 1
v 2 3.5 5
v 2 3.5 4
v 2 3.5 3
v 2 3.5 2
v 2 3.5 1
v 2 3.5 -0
v 2 3.5 -1
v 2 3.5 -4
v 2 3.5 -5
v 2 4.5 5
v 2 4.5 4
v 2 4.5 3
v 2 4.5 1
v 2 4.5 -0
v 2 4.5 -1
v 2 4.5 -4
v 2 4.5 -5
v 2 5.5 6
v 2 5.5 3
v 2 5.5 -1
v 2 5.5 -4
v 3 0.5 2
v 3 0.5 -3
v 3 1.5 3
v 3 1.5 2
v 3 1.5 -1
v 3 1.5 -3
v 3 1.5 -4
v 3 2.5 3
v 3 2.5 2
v 3 3.5 5
v 3 3.5 4
v 3 3.5 -1
v 3 3.5 -4
v 3 4.5 5
v 3 4.5 4
v 3 4.5 -1
v 3 4.5 -4
v 1 2.5 6
v 1 5.5 6
v 2 2.5 6
v 2 5.5 6
v 0 3.5 5
v 0 4.5 5
v 1 -1.5 5
v 1 0.5 5
v 1 3.5 5
v 1 4.5 5
v 2 -1.5 5
v 2 0.5 5
v 2 3.5 5
v 2 4.5 5
v 3 3.5 5
v 3 4.5 5
v 1 -2.5 4
v 1 -1.5 4
v 1 0.5 4
v 1 1.5 4
v 1 2.5 4
v 1 3.5 4
v 2 -2.5 4
v 2 -1.5 4
v 2 0.5 4
v 2 1.5 4
v 2 2.5 4
v 2 3.5 4
v 1 1.5 3
v 1 2.5 3
v 2 1.5 3
v 2 2.5 3
v 3 1.5 3
v 3 2.5 3
v -1 0.5 2
v -1 1.5 2
v 0 0.5 2
v 0 1.5 2
v 1 0.5 2
v 1 1.5 2
v 1 2.5 2
v 1 3.5 2
v 2 0.5 2
v 2 1.5 2
v 2 2.5 2
v 2 3.5 2
v 3 0.5 2
v 3 1.5 2
v -2 0.5 1
v -2 1.5 1
v -1 0.5 1
v -1 1.5 1
v 1 -1.5 1
v 1 0.5 1
v 1 3.5 1
v 1 4.5 1
v 2 -1.5 1
v 2 0.5 1
v 2 3.5 1
v 2 4.5 1
v -3 0.5 -0
v -3 1.5 -0
v -2 0.5 -0
v -2 1.5 -0
v -2 3.5 -0
v -2 4.5 -0
v 1 3.5 -0
v 1 4.5 -0
v -3 1.5 -1
v -3 3.5 -1
v -3 4.5 -1
v -2 -4.5 -1
v -2 0.5 -1
v -2 1.5 -1
v -2 2.5 -1
v -2 3.5 -1
v -2 4.5 -1
v -2 5.5 -1
v -1 -0.5 -1
v -1 0.5 -1
v -1 1.5 -1
v -1 2.5 -1
v -1 3.5 -1
v 0 -4.5 -1
v 0 -0.5 -1
v 1 -4.5 -1
v 1 -0.5 -1
v 1 0.5 -1
v 1 2.5 -1
v 1 3.5 -1
v 2 -4.5 -1
v 2 -0.5 -1
v 2 0.5 -1
v 2 1.5 -1
v 2 2.5 -1
v 2 3.5 -1
v 2 4.5 -1
v 2 5.5 -1
v 3 1.5 -1
v 3 3.5 -1
v 3 4.5 -1
v -2 -5.5 -2
v -2 -4.5 -2
v -1 -5.5 -2
v -1 -4.5 -2
v 1 -5.5 -2
v 1 -4.5 -2
v 2 -5.5 -2
v 2 -4.5 -2
v -1 -4.5 -3
v -1 -3.5 -3
v 1 -4.5 -3
v 1 -3.5 -3
v 1 2.5 5
v 1 3.5 5
v 2 2.5 5
v 2 3.5 5
v 0 3.5 4
v 0 4.5 4
v 1 -1.5 4
v 1 0.5 4
v 1 3.5 4
v 1 4.5 4
v 2 -1.5 4
v 2 0.5 4
v 2 3.5 4
v 2 4.5 4
v 3 3.5 4
v 3 4.5 4
v 1 -2.5 3
v 1 -1.5 3
v 1 0.5 3
v 1 1.5 3
v 1 2.5 3
v 1 3.5 3
v 1 4.5 3
v 1 5.5 3
v 2 -2.5 3
v 2 -1.5 3
v 2 0.5 3
v 2 1.5 3
v 2 2.5 3
v 2 3.5 3
v 2 4.5 3
v 2 5.5 3
v 1 1.5 2
v 1 2.5 2
v 2 1.5 2
v 2 2.5 2
v 3 1.5 2
v 3 2.5 2
v 0 0.5 1
v 0 1.5 1
v 1 0.5 1
v 1 1.5 1
v 1 2.5 1
v 1 3.5 1
v 2 0.5 1
v 2 1.5 1
v 2 2.5 1
v 2 3.5 1
v -1 0.5 -0
v -1 1.5 -0
v 0 0.5 -0
v 0 1.5 -0
v 1 -1.5 -0
v 1 -0.5 -0
v 2 -1.5 -0
v 2 -0.5 -0
v -1 -4.5 -2
v -1 -3.5 -2
v 0 -4.5 -2
v 0 -3.5 -2
v 1 -4.5 -2
v 1 -3.5 -2
v -3 0.5 -3
v -3 1.5 -3
v -2 -5.5 -3
v -2 -4.5 -3
v -2 0.5 -3
v -2 1.5 -3
v -1 -5.5 -3
v -1 -4.5 -3
v 1 -5.5 -3
v 1 -4.5 -3
v 2 -5.5 -3
v 2 -4.5 -3
v 2 0.5 -3
v 2 1.5 -3
v 3 0.5 -3
v 3 1.5 -3
v -3 1.5 -4
v -3 3.5 -4
v -3 4.5 -4
v -2 -4.5 -4
v -2 1.5 -4
v -2 3.5 -4
v -2 4.5 -4
v -2 5.5 -4
v -1 0.5 -4
v -1 1.5 -4
v 1 0.5 -4
v 1 1.5 -4
v 2 -4.5 -4
v 2 1.5 -4
v 2 3.5 -4
v 2 4.5 -4
v 2 5.5 -4
v 3 1.5 -4
v 3 3.5 -4
v 3 4.5 -4
v -2 1.5 -5
v -2 3.5 -5
v -2 4.5 -5
v -1 0.5 -5
v -1 1.5 -5
v -1 2.5 -5
v -1 3.5 -5
v 1 0.5 -5
v 1 1.5 -5
v 1 2.5 -5
v 1 3.5 -5
v 2 1.5 -5
v 2 3.5 -5
v 2 4.5 -5
v -1 2.5 -6
v -1 3.5 -6
v 1 2.5 -6
v 1 3.5 -6
v -2 -5.5 -2
v -1 -5.5 -2
v 1 -5.5 -2
v 2 -5.5 -2
v -2 -5.5 -3
v -1 -5.5 -3
v 1 -5.5 -3
v 2 -5.5 -3
v -2 -4.5 -1
v 0 -4.5 -1
v 1 -4.5 -1
v 2 -4.5 -1
v -2 -4.5 -2
v -1 -4.5 -2
v 0 -4.5 -2
v 1 -4.5 -2
v 2 -4.5 -2
v -2 -4.5 -3
v -1 -4.5 -3
v 1 -4.5 -3
v 2 -4.5 -3
v -2 -4.5 -4
v 2 -4.5 -4
v -1 -3.5 -2
v 0 -3.5 -2
v 1 -3.5 -2
v -1 -3.5 -3
v 1 -3.5 -3
v 1 -2.5 4
v 2 -2.5 4
v 1 -2.5 3
v 2 -2.5 3
v 1 -1.5 5
v 2 -1.5 5
v 1 -1.5 4
v 2 -1.5 4
v 1 -1.5 1
v 2 -1.5 1
v 1 -1.5 -0
v 2 -1.5 -0
v 1 -0.5 -0
v 2 -0.5 -0
v 1 -0.5 -1
v 2 -0.5 -1
v 1 0.5 4
v 2 0.5 4
v 1 0.5 3
v 2 0.5 3
v -1 0.5 2
v 0 0.5 2
v 1 0.5 2
v 2 0.5 2
v 3 0.5 2
v -2 0.5 1
v -1 0.5 1
v 0 0.5 1
v 1 0.5 1
v 2 0.5 1
v -3 0.5 -0
v -2 0.5 -0
v -1 0.5 -0
v 0 0.5 -0
v -2 0.5 -1
v -1 0.5 -1
v 2 0.5 -1
v -3 0.5 -3
v -2 0.5 -3
v 2 0.5 -3
v 3 0.5 -3
v -1 0.5 -4
v 1 0.5 -4
v -1 0.5 -5
v 1 0.5 -5
v 1 1.5 3
v 2 1.5 3
v 3 1.5 3
v 1 1.5 2
v 2 1.5 2
v 3 1.5 2
v -3 1.5 -3
v -2 1.5 -3
v 2 1.5 -3
v 3 1.5 -3
v -3 1.5 -4
v -2 1.5 -4
v -1 1.5 -4
v 1 1.5 -4
v 2 1.5 -4
v 3 1.5 -4
v -2 1.5 -5
v -1 1.5 -5
v 1 1.5 -5
v 2 1.5 -5
v 1 2.5 6
v 2 2.5 6
v 1 2.5 5
v 2 2.5 5
v 1 2.5 4
v 2 2.5 4
v 1 2.5 3
v 2 2.5 3
v 1 2.5 2
v 2 2.5 2
v 1 2.5 1
v 2 2.5 1
v -1 2.5 -5
v 1 2.5 -5
v -1 2.5 -6
v 1 2.5 -6
v 0 3.5 5
v 1 3.5 5
v 2 3.5 5
v 3 3.5 5
v 0 3.5 4
v 1 3.5 4
v 2 3.5 4
v 3 3.5 4
v 1 3.5 1
v 2 3.5 1
v -2 3.5 -0
v 1 3.5 -0
v 2 3.5 -0
v -2 3.5 -1
v -1 3.5 -1
v 1 3.5 -1
v 2 3.5 -1
v 1 4.5 4
v 2 4.5 4
v 1 4.5 3
v 2 4.5 3
v 1 -1.5 4
v 2 -1.5 4
v 1 -1.5 3
v 2 -1.5 3
v 1 0.5 5
v 2 0.5 5
v 1 0.5 4
v 2 0.5 4
v 1 0.5 1
v 2 0.5 1
v 1 0.5 -1
v 2 0.5 -1
v 1 1.5 4
v 2 1.5 4
v 1 1.5 3
v 2 1.5 3
v -1 1.5 2
v 0 1.5 2
v 1 1.5 2
v 2 1.5 2
v 3 1.5 2
v -2 1.5 1
v -1 1.5 1
v 0 1.5 1
v 1 1.5 1
v 2 1.5 1
v -3 1.5 -0
v -2 1.5 -0
v -1 1.5 -0
v 0 1.5 -0
v -3 1.5 -1
v -2 1.5 -1
v -1 1.5 -1
v 2 1.5 -1
v 3 1.5 -1
v 1 2.5 3
v 2 2.5 3
v 3 2.5 3
v 1 2.5 2
v 2 2.5 2
v 3 2.5 2
v 1 3.5 4
v 2 3.5 4
v 1 3.5 3
v 2 3.5 3
v 1 3.5 2
v 2 3.5 2
v 1 3.5 1
v 2 3.5 1
v -1 3.5 -5
v 1 3.5 -5
v -1 3.5 -6
v 1 3.5 -6
v 0 4.5 5
v 1 4.5 5
v 2 4.5 5
v 3 4.5 5
v 0 4.5 4
v 1 4.5 4
v 2 4.5 4
v 3 4.5 4
v 1 4.5 1
v 2 4.5 1
v -2 4.5 -0
v 1 4.5 -0
v 2 4.5 -0
v -3 4.5 -1
v -2 4.5 -1
v 2 4.5 -1
v 3 4.5 -1
v -3 4.5 -4
v -2 4.5 -4
v 2 4.5 -4
v 3 4.5 -4
v -2 4.5 -5
v 2 4.5 -5
v 1 5.5 6
v 2 5.5 6
v 1 5.5 3
v 2 5.5 3
v -2 5.5 -1
v 2 5.5 -1
v -2 5.5 -4
v 2 5.5 -4

# faces
f 3/11/1 2/11/1 1/11/1
f 4/11/1 2/11/1 3/11/1
f 5/11/1 2/11/1 4/11/1
f 7/11/1 6/11/1 5/11/1
f 7/11/1 5/11/1 4/11/1
f 8/11/1 6/11/1 7/11/1
f 9/5/1 8/5/1 7/5/1
f 10/5/1 8/5/1 9/5/1
f 14/11/1 12/11/1 11/11/1
f 15/11/1 12/11/1 14/11/1
f 19/11/1 14/11/1 13/11/1
f 19/11/1 15/11/1 14/11/1
f 19/11/1 16/11/1 15/11/1
f 20/11/1 16/11/1 19/11/1
f 21/11/1 18/11/1 17/11/1
f 22/11/1 18/11/1 21/11/1
f 23/11/1 16/11/1 20/11/1
f 24/11/1 16/11/1 23/11/1
f 28/11/1 25/11/1 24/11/1
f 29/11/1 25/11/1 28/11/1
f 30/5/1 27/5/1 26/5/1
f 31/5/1 27/5/1 30/5/1
f 32/5/1 29/5/1 28/5/1
f 33/5/1 29/5/1 32/5/1
f 34/11/1 32/11/1 31/11/1
f 35/11/1 32/11/1 34/11/1
f 40/11/1 37/11/1 36/11/1
f 41/11/1 37/11/1 40/11/1
f 42/11/1 39/11/1 38/11/1
f 43/11/1 39/11/1 42/11/1
f 46/5/1 45/5/1 44/5/1
f 47/5/1 45/5/1 46/5/1
f 50/8/1 49/8/1 48/8/1
f 51/8/1 49/8/1 50/8/1
f 54/11/1 53/11/1 52/11/1
f 55/11/1 53/11/1 54/11/1
f 56/11/1 55/11/1 54/11/1
f 57/11/1 55/11/1 56/11/1
f 61/4/1 59/4/1 58/4/1
f 62/4/1 59/4/1 61/4/1
f 65/7/1 64/7/1 63/7/1
f 67/4/1 61/4/1 60/4/1
f 68/4/1 61/4/1 67/4/1
f 70/7/1 66/7/1 65/7/1
f 70/7/1 65/7/1 63/7/1
f 71/7/1 66/7/1 70/7/1
f 72/4/1 69/4/1 68/4/1
f 73/4/1 69/4/1 72/4/1
f 78/4/1 74/4/1 73/4/1
f 79/4/1 74/4/1 78/4/1
f 81/8/1 76/8/1 75/8/1
f 82/4/1 78/4/1 77/4/1
f 83/4/1 78/4/1 82/4/1
f 84/4/1 80/4/1 79/4/1
f 85/4/1 80/4/1 84/4/1
f 87/8/1 81/8/1 75/8/1
f 90/4/1 86/4/1 85/4/1
f 91/4/1 86/4/1 90/4/1
f 92/8/1 89/8/1 88/8/1
f 92/8/1 87/8/1 75/8/1
f 92/8/1 88/8/1 87/8/1
f 93/8/1 89/8/1 92/8/1
f 96/11/1 95/11/1 94/11/1
f 97/11/1 95/11/1 96/11/1
f 98/11/2 99/11/2 100/11/2
f 100/11/2 99/11/2 101/11/2
f 100/11/2 101/11/2 102/11/2
f 102/11/2 101/11/2 103/11/2
f 104/11/2 105/11/2 106/11/2
f 106/11/2 105/11/2 107/11/2
f 108/11/2 109/11/2 110/11/2
f 110/11/2 109/11/2 111/11/2
f 112/11/2 113/11/2 114/11/2
f 114/11/2 113/11/2 115/11/2
f 116/5/2 117/5/2 118/5/2
f 118/5/2 117/5/2 119/5/2
f 120/11/2 121/11/2 123/11/2
f 123/11/2 121/11/2 124/11/2
f 126/4/2 127/4/2 129/4/2
f 129/4/2 127/4/2 130/4/2
f 131/7/2 132/7/2 133/7/2
f 122/11/2 123/11/2 134/11/2
f 123/11/2 124/11/2 134/11/2
f 124/11/2 125/11/2 134/11/2
f 128/4/2 129/4/2 135/4/2
f 135/4/2 129/4/2 136/4/2
f 131/7/2 133/7/2 138/7/2
f 133/7/2 134/7/2 138/7/2
f 134/11/2 125/11/2 139/11/2
f 138/7/2 134/7/2 139/7/2
f 139/11/2 125/11/2 140/11/2
f 136/4/2 137/4/2 141/4/2
f 141/4/2 137/4/2 142/4/2
f 140/11/2 125/11/2 143/11/2
f 143/11/2 125/11/2 144/11/2
f 146/8/2 147/8/2 152/8/2
f 148/4/2 149/4/2 153/4/2
f 153/4/2 149/4/2 154/4/2
f 150/4/2 151/4/2 155/4/2
f 155/4/2 151/4/2 156/4/2
f 144/11/2 145/11/2 159/11/2
f 159/11/2 145/11/2 160/11/2
f 146/8/2 152/8/2 161/8/2
f 156/4/2 157/4/2 164/4/2
f 157/5/2 158/5/2 165/5/2
f 164/4/2 157/4/2 165/4/2
f 165/5/2 158/5/2 166/5/2
f 159/5/2 160/5/2 167/5/2
f 167/5/2 160/5/2 168/5/2
f 162/8/2 163/8/2 169/8/2
f 146/8/2 161/8/2 169/8/2
f 161/8/2 162/8/2 169/8/2
f 169/8/2 163/8/2 170/8/2
f 166/11/2 167/11/2 171/11/2
f 171/11/2 167/11/2 172/11/2
f 173/11/2 174/11/2 176/11/2
f 176/11/2 174/11/2 177/11/2
f 177/11/2 174/11/2 178/11/2
f 175/1/2 176/1/2 180/1/2
f 180/1/2 176/1/2 181/1/2
f 178/11/2 179/11/2 184/11/2
f 177/11/2 178/11/2 184/11/2
f 184/11/2 179/11/2 185/11/2
f 182/8/2 183/8/2 186/8/2
f 186/8/2 183/8/2 187/8/2
f 184/5/2 185/5/2 188/5/2
f 188/5/2 185/5/2 189/5/2
f 192/8/3 191/8/3 190/8/3
f 193/8/3 191/8/3 192/8/3
f 198/8/3 195/8/3 194/8/3
f 199/8/3 195/8/3 198/8/3
f 200/4/3 197/4/3 196/4/3
f 201/4/3 197/4/3 200/4/3
f 204/8/3 203/8/3 202/8/3
f 205/8/3 203/8/3 204/8/3
f 212/4/3 207/4/3 206/4/3
f 213/4/3 207/4/3 212/4/3
f 214/4/3 209/4/3 208/4/3
f 215/4/3 209/4/3 214/4/3
f 216/4/3 211/4/3 210/4/3
f 217/4/3 211/4/3 216/4/3
f 220/4/3 219/4/3 218/4/3
f 221/4/3 219/4/3 220/4/3
f 222/1/3 221/1/3 220/1/3
f 223/1/3 221/1/3 222/1/3
f 226/11/3 225/11/3 224/11/3
f 227/11/3 225/11/3 226/11/3
f 228/1/3 227/1/3 226/1/3
f 229/1/3 227/1/3 228/1/3
f 232/4/3 229/4/3 228/4/3
f 233/4/3 229/4/3 232/4/3
f 234/4/3 231/4/3 230/4/3
f 235/4/3 231/4/3 234/4/3
f 236/11/3 233/11/3 232/11/3
f 237/11/3 233/11/3 236/11/3
f 240/11/3 239/11/3 238/11/3
f 241/11/3 239/11/3 240/11/3
f 246/7/3 243/7/3 242/7/3
f 247/7/3 243/7/3 246/7/3
f 248/4/3 245/4/3 244/4/3
f 249/4/3 245/4/3 248/4/3
f 252/11/3 251/11/3 250/11/3
f 253/11/3 251/11/3 252/11/3
f 256/5/3 255/5/3 254/5/3
f 257/5/3 255/5/3 256/5/3
f 263/11/3 259/11/3 258/11/3
f 264/11/3 259/11/3 263/11/3
f 265/5/3 260/5/3 259/5/3
f 265/11/3 259/11/3 264/11/3
f 266/5/3 260/5/3 265/5/3
f 268/11/3 262/11/3 261/11/3
f 269/11/3 262/11/3 268/11/3
f 270/10/3 264/10/3 263/10/3
f 271/6/3 265/6/3 264/6/3
f 271/10/3 264/10/3 270/10/3
f 272/6/3 265/6/3 271/6/3
f 273/11/3 268/11/3 261/11/3
f 274/9/3 269/9/3 268/9/3
f 274/11/3 268/11/3 273/11/3
f 275/9/3 274/9/3 273/9/3
f 276/9/3 269/9/3 274/9/3
f 276/9/3 274/9/3 275/9/3
f 277/10/3 270/10/3 269/10/3
f 277/9/3 269/9/3 276/9/3
f 277/10/3 271/10/3 270/10/3
f 278/1/3 272/1/3 271/1/3
f 278/10/3 271/10/3 277/10/3
f 279/1/3 272/1/3 278/1/3
f 280/11/3 276/11/3 275/11/3
f 281/11/3 276/11/3 280/11/3
f 282/10/3 278/10/3 277/10/3
f 283/10/3 278/10/3 282/10/3
f 284/6/3 279/6/3 278/6/3
f 284/10/3 278/10/3 283/10/3
f 285/6/3 279/6/3 284/6/3
f 286/11/3 267/11/3 266/11/3
f 287/11/3 267/11/3 286/11/3
f 288/11/3 285/11/3 284/11/3
f 288/11/3 284/11/3 283/11/3
f 289/5/3 286/5/3 285/5/3
f 289/11/3 285/11/3 288/11/3
f 290/5/3 286/5/3 289/5/3
f 293/11/3 292/11/3 291/11/3
f 294/11/3 292/11/3 293/11/3
f 297/11/3 296/11/3 295/11/3
f 298/11/3 296/11/3 297/11/3
f 301/11/3 300/11/3 299/11/3
f 302/11/3 300/11/3 301/11/3
f 303/8/4 304/8/4 305/8/4
f 305/8/4 304/8/4 306/8/4
f 307/8/4 308/8/4 311/8/4
f 311/8/4 308/8/4 312/8/4
f 309/4/4 310/4/4 313/4/4
f 313/4/4 310/4/4 314/4/4
f 311/8/4 312/8/4 315/8/4
f 315/8/4 312/8/4 316/8/4
f 315/8/4 316/8/4 317/8/4
f 317/8/4 316/8/4 318/8/4
f 319/4/4 320/4/4 327/4/4
f 327/4/4 320/4/4 328/4/4
f 321/4/4 322/4/4 329/4/4
f 329/4/4 322/4/4 330/4/4
f 323/4/4 324/4/4 331/4/4
f 331/4/4 324/4/4 332/4/4
f 325/8/4 326/8/4 333/8/4
f 333/8/4 326/8/4 334/8/4
f 335/4/4 336/4/4 337/4/4
f 337/4/4 336/4/4 338/4/4
f 337/1/4 338/1/4 339/1/4
f 339/1/4 338/1/4 340/1/4
f 341/1/4 342/1/4 343/1/4
f 343/1/4 342/1/4 344/1/4
f 343/4/4 344/4/4 347/4/4
f 347/4/4 344/4/4 348/4/4
f 345/4/4 346/4/4 349/4/4
f 349/4/4 346/4/4 350/4/4
f 351/11/4 352/11/4 353/11/4
f 353/11/4 352/11/4 354/11/4
f 355/7/4 356/7/4 357/7/4
f 357/7/4 356/7/4 358/7/4
f 359/11/4 360/11/4 361/11/4
f 361/11/4 360/11/4 362/11/4
f 361/9/4 362/9/4 363/9/4
f 363/9/4 362/9/4 364/9/4
f 365/11/4 366/11/4 369/11/4
f 369/11/4 366/11/4 370/11/4
f 367/11/4 368/11/4 371/11/4
f 371/11/4 368/11/4 372/11/4
f 373/11/4 374/11/4 375/11/4
f 375/11/4 374/11/4 376/11/4
f 377/11/4 378/11/4 379/11/4
f 379/11/4 378/11/4 380/11/4
f 381/11/4 382/11/4 385/11/4
f 382/5/4 383/5/4 386/5/4
f 385/11/4 382/11/4 386/11/4
f 386/5/4 383/5/4 387/5/4
f 384/11/4 385/11/4 389/11/4
f 389/11/4 385/11/4 390/11/4
f 384/11/4 389/11/4 391/11/4
f 384/11/4 391/11/4 393/11/4
f 391/11/4 392/11/4 393/11/4
f 393/11/4 392/11/4 394/11/4
f 387/11/4 388/11/4 396/11/4
f 396/11/4 388/11/4 397/11/4
f 394/11/4 395/11/4 398/11/4
f 395/5/4 396/5/4 399/5/4
f 398/11/4 395/11/4 399/11/4
f 399/5/4 396/5/4 400/5/4
f 401/11/4 402/11/4 405/11/4
f 405/11/4 402/11/4 406/11/4
f 402/5/4 403/5/4 407/5/4
f 406/11/4 402/11/4 407/11/4
f 405/11/4 406/11/4 408/11/4
f 404/11/4 405/11/4 408/11/4
f 408/11/4 406/11/4 409/11/4
f 409/11/4 406/11/4 410/11/4
f 407/5/4 403/5/4 411/5/4
f 409/11/4 410/11/4 412/11/4
f 410/11/4 411/11/4 412/11/4
f 411/5/4 403/5/4 413/5/4
f 412/11/4 411/11/4 413/11/4
f 413/5/4 403/5/4 414/5/4
f 415/5/4 416/5/4 417/5/4
f 417/5/4 416/5/4 418/5/4
f 423/11/5 420/11/5 419/11/5
f 424/11/5 420/11/5 423/11/5
f 425/11/5 422/11/5 421/11/5
f 426/11/5 422/11/5 425/11/5
f 431/11/5 428/11/5 427/11/5
f 432/11/5 428/11/5 431/11/5
f 433/9/5 429/9/5 428/9/5
f 433/11/5 428/11/5 432/11/5
f 434/11/5 430/11/5 429/11/5
f 434/9/5 429/9/5 433/9/5
f 435/11/5 430/11/5 434/11/5
f 440/11/5 437/11/5 436/11/5
f 440/11/5 439/11/5 438/11/5
f 440/11/5 438/11/5 437/11/5
f 441/11/5 439/11/5 440/11/5
f 445/2/5 443/2/5 442/2/5
f 445/2/5 444/2/5 443/2/5
f 446/2/5 444/2/5 445/2/5
f 449/4/5 448/4/5 447/4/5
f 450/4/5 448/4/5 449/4/5
f 453/4/5 452/4/5 451/4/5
f 454/4/5 452/4/5 453/4/5
f 457/7/5 456/7/5 455/7/5
f 458/7/5 456/7/5 457/7/5
f 461/7/5 460/7/5 459/7/5
f 462/7/5 460/7/5 461/7/5
f 465/4/5 464/4/5 463/4/5
f 466/4/5 464/4/5 465/4/5
f 473/11/5 468/11/5 467/11/5
f 474/1/5 469/1/5 468/1/5
f 474/11/5 468/11/5 473/11/5
f 475/4/5 470/4/5 469/4/5
f 475/1/5 469/1/5 474/1/5
f 476/11/5 471/11/5 470/11/5
f 476/4/5 470/4/5 475/4/5
f 478/11/5 474/11/5 473/11/5
f 478/11/5 473/11/5 472/11/5
f 479/11/5 474/11/5 478/11/5
f 480/11/5 474/11/5 479/11/5
f 481/11/5 478/11/5 477/11/5
f 481/11/5 479/11/5 478/11/5
f 482/11/5 479/11/5 481/11/5
f 483/11/5 471/11/5 476/11/5
f 484/11/5 481/11/5 477/11/5
f 485/11/5 481/11/5 484/11/5
f 486/11/5 471/11/5 483/11/5
f 487/11/5 471/11/5 486/11/5
f 490/11/5 489/11/5 488/11/5
f 491/11/5 489/11/5 490/11/5
f 495/4/5 493/4/5 492/4/5
f 496/1/5 494/1/5 493/1/5
f 496/4/5 493/4/5 495/4/5
f 497/1/5 494/1/5 496/1/5
f 502/11/5 499/11/5 498/11/5
f 503/11/5 499/11/5 502/11/5
f 506/11/5 501/11/5 500/11/5
f 507/11/5 501/11/5 506/11/5
f 508/11/5 504/11/5 503/11/5
f 509/11/5 504/11/5 508/11/5
f 510/11/5 506/11/5 505/11/5
f 511/11/5 506/11/5 510/11/5
f 514/8/5 513/8/5 512/8/5
f 515/8/5 513/8/5 514/8/5
f 518/4/5 517/4/5 516/4/5
f 519/4/5 517/4/5 518/4/5
f 522/4/5 521/4/5 520/4/5
f 523/4/5 521/4/5 522/4/5
f 526/5/5 525/5/5 524/5/5
f 527/5/5 525/5/5 526/5/5
f 532/8/5 529/8/5 528/8/5
f 532/8/5 531/8/5 530/8/5
f 532/8/5 530/8/5 529/8/5
f 533/8/5 531/8/5 532/8/5
f 534/8/5 531/8/5 533/8/5
f 535/8/5 531/8/5 534/8/5
f 539/4/5 537/4/5 536/4/5
f 540/4/5 537/4/5 539/4/5
f 541/5/5 539/5/5 538/5/5
f 541/5/5 540/5/5 539/5/5
f 542/5/5 540/5/5 541/5/5
f 543/5/5 540/5/5 542/5/5
f 544/5/5 540/5/5 543/5/5
f 547/8/5 546/8/5 545/8/5
f 548/8/5 546/8/5 547/8/5
f 549/4/6 550/4/6 551/4/6
f 551/4/6 550/4/6 552/4/6
f 553/4/6 554/4/6 555/4/6
f 555/4/6 554/4/6 556/4/6
f 557/7/6 558/7/6 559/7/6
f 559/7/6 558/7/6 560/7/6
f 561/4/6 562/4/6 563/4/6
f 563/4/6 562/4/6 564/4/6
f 565/11/6 566/11/6 571/11/6
f 566/1/6 567/1/6 572/1/6
f 571/11/6 566/11/6 572/11/6
f 567/4/6 568/4/6 573/4/6
f 572/1/6 567/1/6 573/1/6
f 568/11/6 569/11/6 574/11/6
f 573/4/6 568/4/6 574/4/6
f 571/11/6 572/11/6 576/11/6
f 570/11/6 571/11/6 576/11/6
f 576/11/6 572/11/6 577/11/6
f 577/11/6 572/11/6 578/11/6
f 575/11/6 576/11/6 579/11/6
f 576/11/6 577/11/6 579/11/6
f 579/11/6 577/11/6 580/11/6
f 580/11/6 577/11/6 581/11/6
f 574/11/6 569/11/6 582/11/6
f 582/11/6 569/11/6 583/11/6
f 584/4/6 585/4/6 587/4/6
f 585/1/6 586/1/6 588/1/6
f 587/4/6 585/4/6 588/4/6
f 588/1/6 586/1/6 589/1/6
f 590/4/6 591/4/6 592/4/6
f 592/4/6 591/4/6 593/4/6
f 594/4/6 595/4/6 596/4/6
f 596/4/6 595/4/6 597/4/6
f 598/5/6 599/5/6 600/5/6
f 600/5/6 599/5/6 601/5/6
f 602/8/6 603/8/6 606/8/6
f 606/8/6 603/8/6 607/8/6
f 604/8/6 605/8/6 608/8/6
f 608/8/6 605/8/6 609/8/6
f 610/4/6 611/4/6 613/4/6
f 613/4/6 611/4/6 614/4/6
f 612/5/6 613/5/6 616/5/6
f 613/5/6 614/5/6 616/5/6
f 616/5/6 614/5/6 617/5/6
f 615/5/6 616/5/6 619/5/6
f 619/5/6 616/5/6 620/5/6
f 617/5/6 618/5/6 621/5/6
f 621/5/6 618/5/6 622/5/6
f 620/5/6 621/5/6 623/5/6
f 623/5/6 621/5/6 624/5/6
f 625/8/6 626/8/6 627/8/6
f 627/8/6 626/8/6 628/8/6
f 629/11/6 630/11/6 631/11/6
f 631/11/6 630/11/6 632/11/6
