# MagicaVoxel @ Ephtracy

# material
mtllib NinjaAimFront.mtl
usemtl palette

# normals
vn -1 0 0
vn 1 0 0
vn 0 0 1
vn 0 0 -1
vn 0 -1 0
vn 0 1 0

# texcoords
vt 0.0605469 0.5
vt 0.369141 0.5
vt 0.521484 0.5
vt 0.701172 0.5
vt 0.845703 0.5
vt 0.876953 0.5
vt 0.958984 0.5
vt 0.974609 0.5
vt 0.986328 0.5
vt 0.990234 0.5
vt 0.994141 0.5

# verts
v -3 0.5 -0.5
v -3 0.5 -3.5
v -3 1.5 -0.5
v -3 1.5 -1.5
v -3 1.5 -3.5
v -3 1.5 -4.5
v -3 3.5 -1.5
v -3 3.5 -4.5
v -3 4.5 -1.5
v -3 4.5 -4.5
v -2 -5.5 -2.5
v -2 -5.5 -3.5
v -2 -4.5 -1.5
v -2 -4.5 -2.5
v -2 -4.5 -3.5
v -2 -4.5 -4.5
v -2 0.5 0.5
v -2 0.5 -0.5
v -2 0.5 -1.5
v -2 0.5 -3.5
v -2 1.5 0.5
v -2 1.5 -0.5
v -2 1.5 -3.5
v -2 1.5 -4.5
v -2 1.5 -5.5
v -2 3.5 -0.5
v -2 3.5 -1.5
v -2 3.5 -4.5
v -2 3.5 -5.5
v -2 4.5 -0.5
v -2 4.5 -1.5
v -2 4.5 -4.5
v -2 4.5 -5.5
v -2 5.5 -1.5
v -2 5.5 -4.5
v -1 0.5 -4.5
v -1 0.5 -5.5
v -1 1.5 -4.5
v -1 1.5 -5.5
v -1 2.5 -5.5
v -1 2.5 -6.5
v -1 3.5 -5.5
v -1 3.5 -6.5
v 0 0.5 5.5
v 0 0.5 4.5
v 0 1.5 5.5
v 0 1.5 4.5
v 1 -5.5 -2.5
v 1 -5.5 -3.5
v 1 -4.5 -2.5
v 1 -4.5 -3.5
v 1 -3.5 -2.5
v 1 -3.5 -3.5
v 1 -2.5 2.5
v 1 -2.5 0.5
v 1 -1.5 3.5
v 1 -1.5 2.5
v 1 -1.5 1.5
v 1 -1.5 0.5
v 1 -0.5 5.5
v 1 -0.5 4.5
v 1 -0.5 2.5
v 1 -0.5 1.5
v 1 -0.5 -0.5
v 1 -0.5 -1.5
v 1 0.5 6.5
v 1 0.5 5.5
v 1 0.5 4.5
v 1 0.5 3.5
v 1 0.5 2.5
v 1 0.5 0.5
v 1 0.5 -0.5
v 1 0.5 -1.5
v 1 1.5 6.5
v 1 1.5 5.5
v 1 1.5 4.5
v 1 1.5 3.5
v 1 1.5 2.5
v 1 1.5 0.5
v 1 1.5 -0.5
v 1 1.5 -1.5
v 1 2.5 5.5
v 1 2.5 4.5
v 1 2.5 2.5
v 1 2.5 1.5
v 1 2.5 -0.5
v 1 2.5 -1.5
v 1 3.5 3.5
v 1 3.5 2.5
v 1 3.5 1.5
v 1 3.5 0.5
v 1 4.5 2.5
v 1 4.5 0.5
v 2 0.5 5.5
v 2 0.5 4.5
v 2 0.5 -0.5
v 2 0.5 -1.5
v 2 1.5 5.5
v 2 1.5 4.5
v 2 1.5 -0.5
v 2 1.5 -1.5
v -1 -5.5 -2.5
v -1 -5.5 -3.5
v -1 -4.5 -2.5
v -1 -4.5 -3.5
v -1 -3.5 -2.5
v -1 -3.5 -3.5
v -1 0.5 -0.5
v -1 0.5 -1.5
v -1 1.5 -0.5
v -1 1.5 -1.5
v 1 0.5 5.5
v 1 0.5 4.5
v 1 0.5 -4.5
v 1 0.5 -5.5
v 1 1.5 5.5
v 1 1.5 4.5
v 1 1.5 -4.5
v 1 1.5 -5.5
v 1 2.5 -5.5
v 1 2.5 -6.5
v 1 3.5 -5.5
v 1 3.5 -6.5
v 2 -5.5 -2.5
v 2 -5.5 -3.5
v 2 -4.5 -1.5
v 2 -4.5 -2.5
v 2 -4.5 -3.5
v 2 -4.5 -4.5
v 2 -2.5 2.5
v 2 -2.5 0.5
v 2 -1.5 3.5
v 2 -1.5 2.5
v 2 -1.5 1.5
v 2 -1.5 0.5
v 2 -0.5 5.5
v 2 -0.5 4.5
v 2 -0.5 2.5
v 2 -0.5 1.5
v 2 -0.5 -0.5
v 2 -0.5 -1.5
v 2 0.5 6.5
v 2 0.5 5.5
v 2 0.5 4.5
v 2 0.5 3.5
v 2 0.5 2.5
v 2 0.5 -0.5
v 2 0.5 -1.5
v 2 0.5 -3.5
v 2 1.5 6.5
v 2 1.5 5.5
v 2 1.5 4.5
v 2 1.5 3.5
v 2 1.5 2.5
v 2 1.5 -0.5
v 2 1.5 -1.5
v 2 1.5 -3.5
v 2 1.5 -4.5
v 2 1.5 -5.5
v 2 2.5 5.5
v 2 2.5 4.5
v 2 2.5 2.5
v 2 2.5 1.5
v 2 2.5 -0.5
v 2 2.5 -1.5
v 2 3.5 3.5
v 2 3.5 2.5
v 2 3.5 1.5
v 2 3.5 0.5
v 2 3.5 -0.5
v 2 3.5 -1.5
v 2 3.5 -4.5
v 2 3.5 -5.5
v 2 4.5 2.5
v 2 4.5 0.5
v 2 4.5 -0.5
v 2 4.5 -1.5
v 2 4.5 -4.5
v 2 4.5 -5.5
v 2 5.5 -1.5
v 2 5.5 -4.5
v 3 0.5 5.5
v 3 0.5 4.5
v 3 0.5 3.5
v 3 0.5 2.5
v 3 0.5 -3.5
v 3 1.5 5.5
v 3 1.5 4.5
v 3 1.5 3.5
v 3 1.5 2.5
v 3 1.5 -1.5
v 3 1.5 -3.5
v 3 1.5 -4.5
v 3 3.5 -1.5
v 3 3.5 -4.5
v 3 4.5 -1.5
v 3 4.5 -4.5
v 1 0.5 6.5
v 1 1.5 6.5
v 2 0.5 6.5
v 2 1.5 6.5
v 0 0.5 5.5
v 0 1.5 5.5
v 1 -0.5 5.5
v 1 0.5 5.5
v 1 1.5 5.5
v 1 2.5 5.5
v 2 -0.5 5.5
v 2 0.5 5.5
v 2 1.5 5.5
v 2 2.5 5.5
v 3 0.5 5.5
v 3 1.5 5.5
v 1 0.5 4.5
v 1 1.5 4.5
v 2 0.5 4.5
v 2 1.5 4.5
v 1 -1.5 3.5
v 1 0.5 3.5
v 1 1.5 3.5
v 1 3.5 3.5
v 2 -1.5 3.5
v 2 0.5 3.5
v 2 1.5 3.5
v 2 3.5 3.5
v 3 0.5 3.5
v 3 1.5 3.5
v 1 -2.5 2.5
v 1 -1.5 2.5
v 1 3.5 2.5
v 1 4.5 2.5
v 2 -2.5 2.5
v 2 -1.5 2.5
v 2 3.5 2.5
v 2 4.5 2.5
v -2 0.5 0.5
v -2 1.5 0.5
v 0 0.5 0.5
v 0 1.5 0.5
v 1 0.5 0.5
v 1 1.5 0.5
v -3 0.5 -0.5
v -3 1.5 -0.5
v -2 0.5 -0.5
v -2 1.5 -0.5
v -2 3.5 -0.5
v -2 4.5 -0.5
v 1 -0.5 -0.5
v 1 0.5 -0.5
v 1 1.5 -0.5
v 1 2.5 -0.5
v 2 -0.5 -0.5
v 2 0.5 -0.5
v 2 1.5 -0.5
v 2 2.5 -0.5
v 2 3.5 -0.5
v 2 4.5 -0.5
v -3 1.5 -1.5
v -3 3.5 -1.5
v -3 4.5 -1.5
v -2 -4.5 -1.5
v -2 0.5 -1.5
v -2 1.5 -1.5
v -2 2.5 -1.5
v -2 3.5 -1.5
v -2 4.5 -1.5
v -2 5.5 -1.5
v -1 -0.5 -1.5
v -1 0.5 -1.5
v -1 1.5 -1.5
v -1 2.5 -1.5
v -1 3.5 -1.5
v 0 -4.5 -1.5
v 0 -0.5 -1.5
v 1 -4.5 -1.5
v 1 -0.5 -1.5
v 1 0.5 -1.5
v 1 1.5 -1.5
v 1 2.5 -1.5
v 1 3.5 -1.5
v 2 -4.5 -1.5
v 2 -0.5 -1.5
v 2 0.5 -1.5
v 2 1.5 -1.5
v 2 2.5 -1.5
v 2 3.5 -1.5
v 2 4.5 -1.5
v 2 5.5 -1.5
v 3 1.5 -1.5
v 3 3.5 -1.5
v 3 4.5 -1.5
v -2 -5.5 -2.5
v -2 -4.5 -2.5
v -1 -5.5 -2.5
v -1 -4.5 -2.5
v 1 -5.5 -2.5
v 1 -4.5 -2.5
v 2 -5.5 -2.5
v 2 -4.5 -2.5
v -1 -4.5 -3.5
v -1 -3.5 -3.5
v 1 -4.5 -3.5
v 1 -3.5 -3.5
v 1 0.5 5.5
v 1 1.5 5.5
v 2 0.5 5.5
v 2 1.5 5.5
v 0 0.5 4.5
v 0 1.5 4.5
v 1 -0.5 4.5
v 1 0.5 4.5
v 1 1.5 4.5
v 1 2.5 4.5
v 2 -0.5 4.5
v 2 0.5 4.5
v 2 1.5 4.5
v 2 2.5 4.5
v 3 0.5 4.5
v 3 1.5 4.5
v 1 -0.5 2.5
v 1 0.5 2.5
v 1 1.5 2.5
v 1 2.5 2.5
v 2 -0.5 2.5
v 2 0.5 2.5
v 2 1.5 2.5
v 2 2.5 2.5
v 1 -1.5 1.5
v 1 -0.5 1.5
v 1 2.5 1.5
v 1 3.5 1.5
v 2 -1.5 1.5
v 2 -0.5 1.5
v 2 2.5 1.5
v 2 3.5 1.5
v 1 -2.5 0.5
v 1 -1.5 0.5
v 1 3.5 0.5
v 1 4.5 0.5
v 2 -2.5 0.5
v 2 -1.5 0.5
v 2 3.5 0.5
v 2 4.5 0.5
v -1 0.5 -0.5
v -1 1.5 -0.5
v 0 0.5 -0.5
v 0 1.5 -0.5
v 1 0.5 -0.5
v 1 1.5 -0.5
v 2 0.5 -0.5
v 2 1.5 -0.5
v -1 -4.5 -2.5
v -1 -3.5 -2.5
v 0 -4.5 -2.5
v 0 -3.5 -2.5
v 1 -4.5 -2.5
v 1 -3.5 -2.5
v -3 0.5 -3.5
v -3 1.5 -3.5
v -2 -5.5 -3.5
v -2 -4.5 -3.5
v -2 0.5 -3.5
v -2 1.5 -3.5
v -1 -5.5 -3.5
v -1 -4.5 -3.5
v 1 -5.5 -3.5
v 1 -4.5 -3.5
v 2 -5.5 -3.5
v 2 -4.5 -3.5
v 2 0.5 -3.5
v 2 1.5 -3.5
v 3 0.5 -3.5
v 3 1.5 -3.5
v -3 1.5 -4.5
v -3 3.5 -4.5
v -3 4.5 -4.5
v -2 -4.5 -4.5
v -2 1.5 -4.5
v -2 3.5 -4.5
v -2 4.5 -4.5
v -2 5.5 -4.5
v -1 0.5 -4.5
v -1 1.5 -4.5
v 1 0.5 -4.5
v 1 1.5 -4.5
v 2 -4.5 -4.5
v 2 1.5 -4.5
v 2 3.5 -4.5
v 2 4.5 -4.5
v 2 5.5 -4.5
v 3 1.5 -4.5
v 3 3.5 -4.5
v 3 4.5 -4.5
v -2 1.5 -5.5
v -2 3.5 -5.5
v -2 4.5 -5.5
v -1 0.5 -5.5
v -1 1.5 -5.5
v -1 2.5 -5.5
v -1 3.5 -5.5
v 1 0.5 -5.5
v 1 1.5 -5.5
v 1 2.5 -5.5
v 1 3.5 -5.5
v 2 1.5 -5.5
v 2 3.5 -5.5
v 2 4.5 -5.5
v -1 2.5 -6.5
v -1 3.5 -6.5
v 1 2.5 -6.5
v 1 3.5 -6.5
v -2 -5.5 -2.5
v -1 -5.5 -2.5
v 1 -5.5 -2.5
v 2 -5.5 -2.5
v -2 -5.5 -3.5
v -1 -5.5 -3.5
v 1 -5.5 -3.5
v 2 -5.5 -3.5
v -2 -4.5 -1.5
v 0 -4.5 -1.5
v 1 -4.5 -1.5
v 2 -4.5 -1.5
v -2 -4.5 -2.5
v -1 -4.5 -2.5
v 0 -4.5 -2.5
v 1 -4.5 -2.5
v 2 -4.5 -2.5
v -2 -4.5 -3.5
v -1 -4.5 -3.5
v 1 -4.5 -3.5
v 2 -4.5 -3.5
v -2 -4.5 -4.5
v 2 -4.5 -4.5
v -1 -3.5 -2.5
v 0 -3.5 -2.5
v 1 -3.5 -2.5
v -1 -3.5 -3.5
v 1 -3.5 -3.5
v 1 -2.5 2.5
v 2 -2.5 2.5
v 1 -2.5 0.5
v 2 -2.5 0.5
v 1 -1.5 3.5
v 2 -1.5 3.5
v 1 -1.5 2.5
v 2 -1.5 2.5
v 1 -0.5 5.5
v 2 -0.5 5.5
v 1 -0.5 4.5
v 2 -0.5 4.5
v 1 -0.5 -0.5
v 2 -0.5 -0.5
v 1 -0.5 -1.5
v 2 -0.5 -1.5
v 1 0.5 6.5
v 2 0.5 6.5
v 0 0.5 5.5
v 1 0.5 5.5
v 2 0.5 5.5
v 3 0.5 5.5
v 0 0.5 4.5
v 1 0.5 4.5
v 2 0.5 4.5
v 3 0.5 4.5
v 1 0.5 3.5
v 2 0.5 3.5
v 3 0.5 3.5
v 1 0.5 2.5
v 2 0.5 2.5
v 3 0.5 2.5
v -2 0.5 0.5
v 0 0.5 0.5
v 1 0.5 0.5
v 2 0.5 0.5
v -3 0.5 -0.5
v -2 0.5 -0.5
v -1 0.5 -0.5
v 0 0.5 -0.5
v 1 0.5 -0.5
v 2 0.5 -0.5
v -2 0.5 -1.5
v -1 0.5 -1.5
v 2 0.5 -1.5
v -3 0.5 -3.5
v -2 0.5 -3.5
v 2 0.5 -3.5
v 3 0.5 -3.5
v -1 0.5 -4.5
v 1 0.5 -4.5
v -1 0.5 -5.5
v 1 0.5 -5.5
v 1 1.5 5.5
v 2 1.5 5.5
v 1 1.5 4.5
v 2 1.5 4.5
v 1 1.5 -0.5
v 2 1.5 -0.5
v 1 1.5 -1.5
v 2 1.5 -1.5
v -3 1.5 -3.5
v -2 1.5 -3.5
v 2 1.5 -3.5
v 3 1.5 -3.5
v -3 1.5 -4.5
v -2 1.5 -4.5
v -1 1.5 -4.5
v 1 1.5 -4.5
v 2 1.5 -4.5
v 3 1.5 -4.5
v -2 1.5 -5.5
v -1 1.5 -5.5
v 1 1.5 -5.5
v 2 1.5 -5.5
v 1 2.5 2.5
v 2 2.5 2.5
v 1 2.5 1.5
v 2 2.5 1.5
v -1 2.5 -5.5
v 1 2.5 -5.5
v -1 2.5 -6.5
v 1 2.5 -6.5
v 1 3.5 1.5
v 2 3.5 1.5
v 1 3.5 0.5
v 2 3.5 0.5
v -2 3.5 -0.5
v 2 3.5 -0.5
v -2 3.5 -1.5
v -1 3.5 -1.5
v 1 3.5 -1.5
v 2 3.5 -1.5
v 1 -1.5 1.5
v 2 -1.5 1.5
v 1 -1.5 0.5
v 2 -1.5 0.5
v 1 -0.5 2.5
v 2 -0.5 2.5
v 1 -0.5 1.5
v 2 -0.5 1.5
v 1 0.5 5.5
v 2 0.5 5.5
v 1 0.5 4.5
v 2 0.5 4.5
v 1 0.5 -0.5
v 2 0.5 -0.5
v 1 0.5 -1.5
v 2 0.5 -1.5
v 1 1.5 6.5
v 2 1.5 6.5
v 0 1.5 5.5
v 1 1.5 5.5
v 2 1.5 5.5
v 3 1.5 5.5
v 0 1.5 4.5
v 1 1.5 4.5
v 2 1.5 4.5
v 3 1.5 4.5
v 1 1.5 3.5
v 2 1.5 3.5
v 3 1.5 3.5
v 1 1.5 2.5
v 2 1.5 2.5
v 3 1.5 2.5
v -2 1.5 0.5
v 0 1.5 0.5
v 1 1.5 0.5
v 2 1.5 0.5
v -3 1.5 -0.5
v -2 1.5 -0.5
v -1 1.5 -0.5
v 0 1.5 -0.5
v 1 1.5 -0.5
v 2 1.5 -0.5
v -3 1.5 -1.5
v -2 1.5 -1.5
v -1 1.5 -1.5
v 2 1.5 -1.5
v 3 1.5 -1.5
v 1 2.5 5.5
v 2 2.5 5.5
v 1 2.5 4.5
v 2 2.5 4.5
v 1 2.5 -0.5
v 2 2.5 -0.5
v 1 2.5 -1.5
v 2 2.5 -1.5
v 1 3.5 3.5
v 2 3.5 3.5
v 1 3.5 2.5
v 2 3.5 2.5
v -1 3.5 -5.5
v 1 3.5 -5.5
v -1 3.5 -6.5
v 1 3.5 -6.5
v 1 4.5 2.5
v 2 4.5 2.5
v 1 4.5 0.5
v 2 4.5 0.5
v -2 4.5 -0.5
v 2 4.5 -0.5
v -3 4.5 -1.5
v -2 4.5 -1.5
v 2 4.5 -1.5
v 3 4.5 -1.5
v -3 4.5 -4.5
v -2 4.5 -4.5
v 2 4.5 -4.5
v 3 4.5 -4.5
v -2 4.5 -5.5
v 2 4.5 -5.5
v -2 5.5 -1.5
v 2 5.5 -1.5
v -2 5.5 -4.5
v 2 5.5 -4.5

# faces
f 3/11/1 2/11/1 1/11/1
f 4/11/1 2/11/1 3/11/1
f 5/11/1 2/11/1 4/11/1
f 7/11/1 6/11/1 5/11/1
f 7/11/1 5/11/1 4/11/1
f 8/11/1 6/11/1 7/11/1
f 9/5/1 8/5/1 7/5/1
f 10/5/1 8/5/1 9/5/1
f 14/11/1 12/11/1 11/11/1
f 15/11/1 12/11/1 14/11/1
f 19/11/1 14/11/1 13/11/1
f 19/11/1 15/11/1 14/11/1
f 19/11/1 16/11/1 15/11/1
f 20/11/1 16/11/1 19/11/1
f 21/11/1 18/11/1 17/11/1
f 22/11/1 18/11/1 21/11/1
f 23/11/1 16/11/1 20/11/1
f 24/11/1 16/11/1 23/11/1
f 28/11/1 25/11/1 24/11/1
f 29/11/1 25/11/1 28/11/1
f 30/5/1 27/5/1 26/5/1
f 31/5/1 27/5/1 30/5/1
f 32/5/1 29/5/1 28/5/1
f 33/5/1 29/5/1 32/5/1
f 34/11/1 32/11/1 31/11/1
f 35/11/1 32/11/1 34/11/1
f 38/11/1 37/11/1 36/11/1
f 39/11/1 37/11/1 38/11/1
f 42/5/1 41/5/1 40/5/1
f 43/5/1 41/5/1 42/5/1
f 46/8/1 45/8/1 44/8/1
f 47/8/1 45/8/1 46/8/1
f 50/11/1 49/11/1 48/11/1
f 51/11/1 49/11/1 50/11/1
f 52/11/1 51/11/1 50/11/1
f 53/11/1 51/11/1 52/11/1
f 57/4/1 55/4/1 54/4/1
f 58/4/1 55/4/1 57/4/1
f 59/4/1 55/4/1 58/4/1
f 62/4/1 57/4/1 56/4/1
f 62/4/1 58/4/1 57/4/1
f 63/4/1 58/4/1 62/4/1
f 67/8/1 61/8/1 60/8/1
f 68/8/1 61/8/1 67/8/1
f 69/4/1 62/4/1 56/4/1
f 70/4/1 62/4/1 69/4/1
f 72/7/1 65/7/1 64/7/1
f 73/7/1 65/7/1 72/7/1
f 74/8/1 67/8/1 66/8/1
f 75/8/1 67/8/1 74/8/1
f 76/4/1 71/4/1 70/4/1
f 76/4/1 69/4/1 68/4/1
f 76/4/1 70/4/1 69/4/1
f 77/4/1 71/4/1 76/4/1
f 78/4/1 71/4/1 77/4/1
f 79/4/1 71/4/1 78/4/1
f 82/8/1 76/8/1 75/8/1
f 83/8/1 76/8/1 82/8/1
f 84/4/1 78/4/1 77/4/1
f 86/7/1 81/7/1 80/7/1
f 87/7/1 81/7/1 86/7/1
f 88/4/1 85/4/1 84/4/1
f 88/4/1 84/4/1 77/4/1
f 89/4/1 85/4/1 88/4/1
f 90/4/1 85/4/1 89/4/1
f 92/4/1 91/4/1 90/4/1
f 92/4/1 90/4/1 89/4/1
f 93/4/1 91/4/1 92/4/1
f 98/8/1 95/8/1 94/8/1
f 99/8/1 95/8/1 98/8/1
f 100/11/1 97/11/1 96/11/1
f 101/11/1 97/11/1 100/11/1
f 102/11/2 103/11/2 104/11/2
f 104/11/2 103/11/2 105/11/2
f 104/11/2 105/11/2 106/11/2
f 106/11/2 105/11/2 107/11/2
f 108/11/2 109/11/2 110/11/2
f 110/11/2 109/11/2 111/11/2
f 112/8/2 113/8/2 116/8/2
f 116/8/2 113/8/2 117/8/2
f 114/11/2 115/11/2 118/11/2
f 118/11/2 115/11/2 119/11/2
f 120/5/2 121/5/2 122/5/2
f 122/5/2 121/5/2 123/5/2
f 124/11/2 125/11/2 127/11/2
f 127/11/2 125/11/2 128/11/2
f 130/4/2 131/4/2 133/4/2
f 133/4/2 131/4/2 134/4/2
f 134/4/2 131/4/2 135/4/2
f 132/4/2 133/4/2 138/4/2
f 133/4/2 134/4/2 138/4/2
f 138/4/2 134/4/2 139/4/2
f 126/11/2 127/11/2 141/11/2
f 127/11/2 128/11/2 141/11/2
f 128/11/2 129/11/2 141/11/2
f 136/8/2 137/8/2 143/8/2
f 143/8/2 137/8/2 144/8/2
f 132/4/2 138/4/2 145/4/2
f 145/4/2 138/4/2 146/4/2
f 140/7/2 141/7/2 147/7/2
f 141/11/2 129/11/2 148/11/2
f 147/7/2 141/7/2 148/7/2
f 148/11/2 129/11/2 149/11/2
f 142/8/2 143/8/2 150/8/2
f 150/8/2 143/8/2 151/8/2
f 144/4/2 145/4/2 152/4/2
f 152/4/2 145/4/2 153/4/2
f 149/11/2 129/11/2 157/11/2
f 157/11/2 129/11/2 158/11/2
f 151/8/2 152/8/2 160/8/2
f 160/8/2 152/8/2 161/8/2
f 153/4/2 154/4/2 162/4/2
f 155/7/2 156/7/2 164/7/2
f 164/7/2 156/7/2 165/7/2
f 162/4/2 163/4/2 166/4/2
f 153/4/2 162/4/2 166/4/2
f 166/4/2 163/4/2 167/4/2
f 167/4/2 163/4/2 168/4/2
f 158/11/2 159/11/2 172/11/2
f 172/11/2 159/11/2 173/11/2
f 168/4/2 169/4/2 174/4/2
f 167/4/2 168/4/2 174/4/2
f 174/4/2 169/4/2 175/4/2
f 170/5/2 171/5/2 176/5/2
f 176/5/2 171/5/2 177/5/2
f 172/5/2 173/5/2 178/5/2
f 178/5/2 173/5/2 179/5/2
f 177/11/2 178/11/2 180/11/2
f 180/11/2 178/11/2 181/11/2
f 182/8/2 183/8/2 187/8/2
f 187/8/2 183/8/2 188/8/2
f 184/1/2 185/1/2 189/1/2
f 185/11/2 186/11/2 190/11/2
f 189/1/2 185/1/2 190/1/2
f 190/11/2 186/11/2 191/11/2
f 191/11/2 186/11/2 192/11/2
f 192/11/2 193/11/2 194/11/2
f 191/11/2 192/11/2 194/11/2
f 194/11/2 193/11/2 195/11/2
f 194/5/2 195/5/2 196/5/2
f 196/5/2 195/5/2 197/5/2
f 200/8/3 199/8/3 198/8/3
f 201/8/3 199/8/3 200/8/3
f 205/8/3 203/8/3 202/8/3
f 206/8/3 203/8/3 205/8/3
f 208/8/3 205/8/3 204/8/3
f 209/8/3 205/8/3 208/8/3
f 210/8/3 207/8/3 206/8/3
f 211/8/3 207/8/3 210/8/3
f 212/8/3 210/8/3 209/8/3
f 213/8/3 210/8/3 212/8/3
f 216/4/3 215/4/3 214/4/3
f 217/4/3 215/4/3 216/4/3
f 222/4/3 219/4/3 218/4/3
f 223/4/3 219/4/3 222/4/3
f 224/4/3 221/4/3 220/4/3
f 225/4/3 221/4/3 224/4/3
f 226/1/3 224/1/3 223/1/3
f 227/1/3 224/1/3 226/1/3
f 232/4/3 229/4/3 228/4/3
f 233/4/3 229/4/3 232/4/3
f 234/4/3 231/4/3 230/4/3
f 235/4/3 231/4/3 234/4/3
f 238/11/3 237/11/3 236/11/3
f 239/11/3 237/11/3 238/11/3
f 240/1/3 239/1/3 238/1/3
f 241/1/3 239/1/3 240/1/3
f 244/11/3 243/11/3 242/11/3
f 245/11/3 243/11/3 244/11/3
f 252/7/3 249/7/3 248/7/3
f 253/7/3 249/7/3 252/7/3
f 254/7/3 251/7/3 250/7/3
f 255/7/3 251/7/3 254/7/3
f 256/5/3 247/5/3 246/5/3
f 257/5/3 247/5/3 256/5/3
f 263/11/3 259/11/3 258/11/3
f 264/11/3 259/11/3 263/11/3
f 265/5/3 260/5/3 259/5/3
f 265/11/3 259/11/3 264/11/3
f 266/5/3 260/5/3 265/5/3
f 268/11/3 262/11/3 261/11/3
f 269/11/3 262/11/3 268/11/3
f 270/10/3 264/10/3 263/10/3
f 271/6/3 265/6/3 264/6/3
f 271/10/3 264/10/3 270/10/3
f 272/6/3 265/6/3 271/6/3
f 273/11/3 268/11/3 261/11/3
f 274/9/3 269/9/3 268/9/3
f 274/11/3 268/11/3 273/11/3
f 275/9/3 274/9/3 273/9/3
f 276/9/3 269/9/3 274/9/3
f 276/9/3 274/9/3 275/9/3
f 277/10/3 270/10/3 269/10/3
f 277/9/3 269/9/3 276/9/3
f 277/10/3 271/10/3 270/10/3
f 278/10/3 271/10/3 277/10/3
f 279/1/3 272/1/3 271/1/3
f 279/10/3 271/10/3 278/10/3
f 280/1/3 272/1/3 279/1/3
f 281/11/3 276/11/3 275/11/3
f 282/11/3 276/11/3 281/11/3
f 283/10/3 278/10/3 277/10/3
f 284/10/3 278/10/3 283/10/3
f 285/6/3 280/6/3 279/6/3
f 286/6/3 280/6/3 285/6/3
f 287/11/3 267/11/3 266/11/3
f 288/11/3 267/11/3 287/11/3
f 289/11/3 286/11/3 285/11/3
f 289/11/3 285/11/3 284/11/3
f 290/5/3 287/5/3 286/5/3
f 290/11/3 286/11/3 289/11/3
f 291/5/3 287/5/3 290/5/3
f 294/11/3 293/11/3 292/11/3
f 295/11/3 293/11/3 294/11/3
f 298/11/3 297/11/3 296/11/3
f 299/11/3 297/11/3 298/11/3
f 302/11/3 301/11/3 300/11/3
f 303/11/3 301/11/3 302/11/3
f 304/8/4 305/8/4 306/8/4
f 306/8/4 305/8/4 307/8/4
f 308/8/4 309/8/4 311/8/4
f 311/8/4 309/8/4 312/8/4
f 310/8/4 311/8/4 314/8/4
f 314/8/4 311/8/4 315/8/4
f 312/8/4 313/8/4 316/8/4
f 316/8/4 313/8/4 317/8/4
f 315/8/4 316/8/4 318/8/4
f 318/8/4 316/8/4 319/8/4
f 320/4/4 321/4/4 324/4/4
f 324/4/4 321/4/4 325/4/4
f 322/4/4 323/4/4 326/4/4
f 326/4/4 323/4/4 327/4/4
f 328/4/4 329/4/4 332/4/4
f 332/4/4 329/4/4 333/4/4
f 330/4/4 331/4/4 334/4/4
f 334/4/4 331/4/4 335/4/4
f 336/4/4 337/4/4 340/4/4
f 340/4/4 337/4/4 341/4/4
f 338/4/4 339/4/4 342/4/4
f 342/4/4 339/4/4 343/4/4
f 344/11/4 345/11/4 346/11/4
f 346/11/4 345/11/4 347/11/4
f 346/1/4 347/1/4 348/1/4
f 348/1/4 347/1/4 349/1/4
f 348/7/4 349/7/4 350/7/4
f 350/7/4 349/7/4 351/7/4
f 352/11/4 353/11/4 354/11/4
f 354/11/4 353/11/4 355/11/4
f 354/9/4 355/9/4 356/9/4
f 356/9/4 355/9/4 357/9/4
f 358/11/4 359/11/4 362/11/4
f 362/11/4 359/11/4 363/11/4
f 360/11/4 361/11/4 364/11/4
f 364/11/4 361/11/4 365/11/4
f 366/11/4 367/11/4 368/11/4
f 368/11/4 367/11/4 369/11/4
f 370/11/4 371/11/4 372/11/4
f 372/11/4 371/11/4 373/11/4
f 374/11/4 375/11/4 378/11/4
f 375/5/4 376/5/4 379/5/4
f 378/11/4 375/11/4 379/11/4
f 379/5/4 376/5/4 380/5/4
f 377/11/4 378/11/4 382/11/4
f 382/11/4 378/11/4 383/11/4
f 377/11/4 382/11/4 384/11/4
f 377/11/4 384/11/4 386/11/4
f 384/11/4 385/11/4 386/11/4
f 386/11/4 385/11/4 387/11/4
f 380/11/4 381/11/4 389/11/4
f 389/11/4 381/11/4 390/11/4
f 387/11/4 388/11/4 391/11/4
f 388/5/4 389/5/4 392/5/4
f 391/11/4 388/11/4 392/11/4
f 392/5/4 389/5/4 393/5/4
f 394/11/4 395/11/4 398/11/4
f 398/11/4 395/11/4 399/11/4
f 395/5/4 396/5/4 400/5/4
f 399/11/4 395/11/4 400/11/4
f 398/11/4 399/11/4 401/11/4
f 397/11/4 398/11/4 401/11/4
f 401/11/4 399/11/4 402/11/4
f 402/11/4 399/11/4 403/11/4
f 400/5/4 396/5/4 404/5/4
f 402/11/4 403/11/4 405/11/4
f 403/11/4 404/11/4 405/11/4
f 404/5/4 396/5/4 406/5/4
f 405/11/4 404/11/4 406/11/4
f 406/5/4 396/5/4 407/5/4
f 408/5/4 409/5/4 410/5/4
f 410/5/4 409/5/4 411/5/4
f 416/11/5 413/11/5 412/11/5
f 417/11/5 413/11/5 416/11/5
f 418/11/5 415/11/5 414/11/5
f 419/11/5 415/11/5 418/11/5
f 424/11/5 421/11/5 420/11/5
f 425/11/5 421/11/5 424/11/5
f 426/9/5 422/9/5 421/9/5
f 426/11/5 421/11/5 425/11/5
f 427/11/5 423/11/5 422/11/5
f 427/9/5 422/9/5 426/9/5
f 428/11/5 423/11/5 427/11/5
f 433/11/5 430/11/5 429/11/5
f 433/11/5 432/11/5 431/11/5
f 433/11/5 431/11/5 430/11/5
f 434/11/5 432/11/5 433/11/5
f 438/2/5 436/2/5 435/2/5
f 438/2/5 437/2/5 436/2/5
f 439/2/5 437/2/5 438/2/5
f 442/4/5 441/4/5 440/4/5
f 443/4/5 441/4/5 442/4/5
f 446/4/5 445/4/5 444/4/5
f 447/4/5 445/4/5 446/4/5
f 450/8/5 449/8/5 448/8/5
f 451/8/5 449/8/5 450/8/5
f 454/7/5 453/7/5 452/7/5
f 455/7/5 453/7/5 454/7/5
f 459/8/5 457/8/5 456/8/5
f 460/8/5 457/8/5 459/8/5
f 462/8/5 459/8/5 458/8/5
f 463/8/5 459/8/5 462/8/5
f 464/8/5 461/8/5 460/8/5
f 465/8/5 461/8/5 464/8/5
f 466/4/5 464/4/5 463/4/5
f 467/4/5 464/4/5 466/4/5
f 470/1/5 468/1/5 467/1/5
f 471/1/5 468/1/5 470/1/5
f 474/4/5 470/4/5 469/4/5
f 475/11/5 471/11/5 470/11/5
f 475/4/5 470/4/5 474/4/5
f 477/11/5 473/11/5 472/11/5
f 478/11/5 473/11/5 477/11/5
f 479/1/5 474/1/5 473/1/5
f 479/11/5 473/11/5 478/11/5
f 480/7/5 475/7/5 474/7/5
f 480/1/5 474/1/5 479/1/5
f 481/11/5 471/11/5 475/11/5
f 481/7/5 475/7/5 480/7/5
f 482/11/5 478/11/5 477/11/5
f 482/11/5 477/11/5 476/11/5
f 483/11/5 478/11/5 482/11/5
f 484/11/5 471/11/5 481/11/5
f 485/11/5 482/11/5 476/11/5
f 486/11/5 482/11/5 485/11/5
f 487/11/5 471/11/5 484/11/5
f 488/11/5 471/11/5 487/11/5
f 491/11/5 490/11/5 489/11/5
f 492/11/5 490/11/5 491/11/5
f 495/8/5 494/8/5 493/8/5
f 496/8/5 494/8/5 495/8/5
f 499/7/5 498/7/5 497/7/5
f 500/7/5 498/7/5 499/7/5
f 505/11/5 502/11/5 501/11/5
f 506/11/5 502/11/5 505/11/5
f 509/11/5 504/11/5 503/11/5
f 510/11/5 504/11/5 509/11/5
f 511/11/5 507/11/5 506/11/5
f 512/11/5 507/11/5 511/11/5
f 513/11/5 509/11/5 508/11/5
f 514/11/5 509/11/5 513/11/5
f 517/4/5 516/4/5 515/4/5
f 518/4/5 516/4/5 517/4/5
f 521/5/5 520/5/5 519/5/5
f 522/5/5 520/5/5 521/5/5
f 525/4/5 524/4/5 523/4/5
f 526/4/5 524/4/5 525/4/5
f 529/5/5 528/5/5 527/5/5
f 530/5/5 528/5/5 529/5/5
f 531/5/5 528/5/5 530/5/5
f 532/5/5 528/5/5 531/5/5
f 533/4/6 534/4/6 535/4/6
f 535/4/6 534/4/6 536/4/6
f 537/4/6 538/4/6 539/4/6
f 539/4/6 538/4/6 540/4/6
f 541/8/6 542/8/6 543/8/6
f 543/8/6 542/8/6 544/8/6
f 545/7/6 546/7/6 547/7/6
f 547/7/6 546/7/6 548/7/6
f 549/8/6 550/8/6 552/8/6
f 552/8/6 550/8/6 553/8/6
f 551/8/6 552/8/6 555/8/6
f 555/8/6 552/8/6 556/8/6
f 553/8/6 554/8/6 557/8/6
f 557/8/6 554/8/6 558/8/6
f 556/4/6 557/4/6 559/4/6
f 559/4/6 557/4/6 560/4/6
f 560/1/6 561/1/6 563/1/6
f 563/1/6 561/1/6 564/1/6
f 562/4/6 563/4/6 567/4/6
f 563/11/6 564/11/6 568/11/6
f 567/4/6 563/4/6 568/4/6
f 565/11/6 566/11/6 570/11/6
f 570/11/6 566/11/6 571/11/6
f 566/1/6 567/1/6 572/1/6
f 571/11/6 566/11/6 572/11/6
f 567/7/6 568/7/6 573/7/6
f 572/1/6 567/1/6 573/1/6
f 568/11/6 564/11/6 574/11/6
f 573/7/6 568/7/6 574/7/6
f 570/11/6 571/11/6 575/11/6
f 569/11/6 570/11/6 575/11/6
f 575/11/6 571/11/6 576/11/6
f 576/11/6 571/11/6 577/11/6
f 574/11/6 564/11/6 578/11/6
f 578/11/6 564/11/6 579/11/6
f 580/8/6 581/8/6 582/8/6
f 582/8/6 581/8/6 583/8/6
f 584/7/6 585/7/6 586/7/6
f 586/7/6 585/7/6 587/7/6
f 588/4/6 589/4/6 590/4/6
f 590/4/6 589/4/6 591/4/6
f 592/5/6 593/5/6 594/5/6
f 594/5/6 593/5/6 595/5/6
f 596/4/6 597/4/6 598/4/6
f 598/4/6 597/4/6 599/4/6
f 600/5/6 601/5/6 603/5/6
f 603/5/6 601/5/6 604/5/6
f 602/5/6 603/5/6 606/5/6
f 606/5/6 603/5/6 607/5/6
f 604/5/6 605/5/6 608/5/6
f 608/5/6 605/5/6 609/5/6
f 607/5/6 608/5/6 610/5/6
f 610/5/6 608/5/6 611/5/6
f 612/11/6 613/11/6 614/11/6
f 614/11/6 613/11/6 615/11/6
