# MagicaVoxel @ Ephtracy

# material
mtllib NinjaWalk1.mtl
usemtl palette

# normals
vn -1 0 0
vn 1 0 0
vn 0 0 1
vn 0 0 -1
vn 0 -1 0
vn 0 1 0

# texcoords
vt 0.0605469 0.5
vt 0.369141 0.5
vt 0.521484 0.5
vt 0.845703 0.5
vt 0.876953 0.5
vt 0.986328 0.5
vt 0.990234 0.5
vt 0.994141 0.5

# verts
v -3 -3 -0
v -3 -3 -1
v -3 -2 -0
v -3 -2 -1
v -3 -1 1
v -3 -1 -0
v -3 0 -0
v -3 0 -1
v -3 1 2
v -3 1 1
v -3 1 -0
v -3 1 -1
v -3 3 2
v -3 3 -1
v -3 4 2
v -3 4 -1
v -2 -5 2
v -2 -5 1
v -2 -4 1
v -2 -4 -1
v -2 -3 -0
v -2 -3 -1
v -2 -2 -0
v -2 -1 1
v -2 -1 -0
v -2 0 2
v -2 0 1
v -2 0 -0
v -2 0 -1
v -2 1 2
v -2 1 1
v -2 1 -0
v -2 1 -1
v -2 1 -2
v -2 3 3
v -2 3 2
v -2 3 -1
v -2 3 -2
v -2 4 3
v -2 4 2
v -2 4 -1
v -2 4 -2
v -2 5 2
v -2 5 -1
v -1 0 -1
v -1 0 -2
v -1 1 -1
v -1 1 -2
v -1 2 -2
v -1 2 -3
v -1 3 -2
v -1 3 -3
v 0 3 -2
v 0 3 -3
v 0 4 -2
v 0 4 -3
v 1 -5 -0
v 1 -5 -1
v 1 -4 1
v 1 -4 -0
v 1 -4 -1
v 1 -3 1
v 1 -3 -0
v 2 -2 3
v 2 -2 2
v 2 -1 3
v 2 -1 2
v -1 -5 2
v -1 -5 1
v -1 -4 2
v -1 -4 1
v -1 -4 -0
v -1 -3 1
v -1 -3 -0
v 0 2 -2
v 0 2 -3
v 0 3 -2
v 0 3 -3
v 1 0 -1
v 1 0 -2
v 1 1 -1
v 1 1 -2
v 1 3 -2
v 1 3 -3
v 1 4 -2
v 1 4 -3
v 2 -5 -0
v 2 -5 -1
v 2 -4 2
v 2 -4 -0
v 2 -2 2
v 2 -2 1
v 2 -1 1
v 2 -1 -0
v 2 0 2
v 2 0 1
v 2 1 2
v 2 1 1
v 2 1 -0
v 2 1 -1
v 2 1 -2
v 2 3 3
v 2 3 2
v 2 3 -1
v 2 3 -2
v 2 4 3
v 2 4 2
v 2 4 -1
v 2 4 -2
v 2 5 2
v 2 5 -1
v 3 -2 3
v 3 -2 2
v 3 -2 1
v 3 -1 3
v 3 -1 2
v 3 -1 1
v 3 -1 -0
v 3 0 2
v 3 0 1
v 3 1 2
v 3 1 1
v 3 1 -0
v 3 1 -1
v 3 3 2
v 3 3 -1
v 3 4 2
v 3 4 -1
v -2 3 3
v -2 4 3
v 2 -2 3
v 2 -1 3
v 2 3 3
v 2 4 3
v 3 -2 3
v 3 -1 3
v -3 1 2
v -3 3 2
v -3 4 2
v -2 -5 2
v -2 0 2
v -2 1 2
v -2 2 2
v -2 3 2
v -2 4 2
v -2 5 2
v -1 -5 2
v -1 -4 2
v -1 -1 2
v -1 0 2
v -1 2 2
v -1 3 2
v 0 -4 2
v 0 -1 2
v 1 -4 2
v 1 0 2
v 1 2 2
v 1 3 2
v 2 -4 2
v 2 -2 2
v 2 -1 2
v 2 0 2
v 2 1 2
v 2 2 2
v 2 3 2
v 2 4 2
v 2 5 2
v 3 -1 2
v 3 0 2
v 3 1 2
v 3 3 2
v 3 4 2
v -3 -1 1
v -3 1 1
v -2 -1 1
v -2 0 1
v -2 1 1
v 2 0 1
v 2 1 1
v 3 0 1
v 3 1 1
v -3 -3 -0
v -3 -2 -0
v -3 -1 -0
v -2 -3 -0
v -2 -2 -0
v -2 -1 -0
v -1 -4 -0
v -1 -3 -0
v 1 -5 -0
v 1 -4 -0
v 1 -3 -0
v 2 -5 -0
v 2 -4 -0
v -2 -5 1
v -2 -4 1
v -1 -5 1
v -1 -4 1
v -1 -3 1
v 0 -4 1
v 0 -3 1
v 1 -4 1
v 1 -3 1
v 2 -2 1
v 2 -1 1
v 3 -2 1
v 3 -1 1
v -3 0 -0
v -3 1 -0
v -2 0 -0
v -2 1 -0
v 2 -1 -0
v 2 1 -0
v 3 -1 -0
v 3 1 -0
v -3 -3 -1
v -3 -2 -1
v -3 0 -1
v -3 1 -1
v -3 3 -1
v -3 4 -1
v -2 -4 -1
v -2 -3 -1
v -2 -2 -1
v -2 0 -1
v -2 1 -1
v -2 3 -1
v -2 4 -1
v -2 5 -1
v -1 0 -1
v -1 1 -1
v 1 -5 -1
v 1 -4 -1
v 1 0 -1
v 1 1 -1
v 2 -5 -1
v 2 1 -1
v 2 3 -1
v 2 4 -1
v 2 5 -1
v 3 1 -1
v 3 3 -1
v 3 4 -1
v -2 1 -2
v -2 3 -2
v -2 4 -2
v -1 0 -2
v -1 1 -2
v -1 2 -2
v -1 3 -2
v 0 2 -2
v 0 3 -2
v 0 4 -2
v 1 0 -2
v 1 1 -2
v 1 3 -2
v 1 4 -2
v 2 1 -2
v 2 3 -2
v 2 4 -2
v -1 2 -3
v -1 3 -3
v 0 2 -3
v 0 3 -3
v 0 4 -3
v 1 3 -3
v 1 4 -3
v -2 -5 2
v -1 -5 2
v -2 -5 1
v -1 -5 1
v 1 -5 -0
v 2 -5 -0
v 1 -5 -1
v 2 -5 -1
v -1 -4 2
v 0 -4 2
v 1 -4 2
v 2 -4 2
v -2 -4 1
v -1 -4 1
v 0 -4 1
v 1 -4 1
v -1 -4 -0
v 1 -4 -0
v 2 -4 -0
v -2 -4 -1
v 1 -4 -1
v -1 -3 1
v 0 -3 1
v 1 -3 1
v -3 -3 -0
v -2 -3 -0
v -1 -3 -0
v 1 -3 -0
v -3 -3 -1
v -2 -3 -1
v 2 -2 3
v 3 -2 3
v 2 -2 2
v 3 -2 2
v 2 -2 1
v 3 -2 1
v -3 -1 1
v -2 -1 1
v 2 -1 1
v 3 -1 1
v -3 -1 -0
v -2 -1 -0
v 2 -1 -0
v 3 -1 -0
v -1 0 -1
v 1 0 -1
v -1 0 -2
v 1 0 -2
v -3 1 2
v -2 1 2
v 2 1 2
v 3 1 2
v -3 1 1
v -2 1 1
v 2 1 1
v 3 1 1
v -3 1 -0
v -2 1 -0
v 2 1 -0
v 3 1 -0
v -3 1 -1
v -2 1 -1
v -1 1 -1
v 1 1 -1
v 2 1 -1
v 3 1 -1
v -2 1 -2
v -1 1 -2
v 1 1 -2
v 2 1 -2
v -1 2 -2
v 0 2 -2
v -1 2 -3
v 0 2 -3
v -2 3 3
v 2 3 3
v -2 3 2
v -1 3 2
v 1 3 2
v 2 3 2
v 0 3 -2
v 1 3 -2
v 0 3 -3
v 1 3 -3
v 2 -1 3
v 3 -1 3
v 2 -1 2
v 3 -1 2
v 2 0 2
v 3 0 2
v 2 0 1
v 3 0 1
v -3 0 -0
v -2 0 -0
v -3 0 -1
v -2 0 -1
v -1 3 -2
v 0 3 -2
v -1 3 -3
v 0 3 -3
v -2 4 3
v 2 4 3
v -3 4 2
v -2 4 2
v 2 4 2
v 3 4 2
v -3 4 -1
v -2 4 -1
v 2 4 -1
v 3 4 -1
v -2 4 -2
v 0 4 -2
v 1 4 -2
v 2 4 -2
v 0 4 -3
v 1 4 -3
v -2 5 2
v 2 5 2
v -2 5 -1
v 2 5 -1

# faces
f 3/1/1 2/1/1 1/1/1
f 4/1/1 2/1/1 3/1/1
f 6/8/1 4/8/1 3/8/1
f 7/8/1 4/8/1 6/8/1
f 7/8/1 6/8/1 5/8/1
f 8/8/1 4/8/1 7/8/1
f 10/8/1 7/8/1 5/8/1
f 11/8/1 7/8/1 10/8/1
f 13/8/1 10/8/1 9/8/1
f 13/8/1 12/8/1 11/8/1
f 13/8/1 11/8/1 10/8/1
f 14/8/1 12/8/1 13/8/1
f 15/4/1 14/4/1 13/4/1
f 16/4/1 14/4/1 15/4/1
f 19/8/1 18/8/1 17/8/1
f 21/8/1 20/8/1 19/8/1
f 22/8/1 20/8/1 21/8/1
f 23/8/1 21/8/1 19/8/1
f 24/8/1 19/8/1 17/8/1
f 24/8/1 23/8/1 19/8/1
f 25/8/1 23/8/1 24/8/1
f 26/8/1 24/8/1 17/8/1
f 27/8/1 24/8/1 26/8/1
f 30/7/1 27/7/1 26/7/1
f 31/7/1 27/7/1 30/7/1
f 32/8/1 29/8/1 28/8/1
f 33/8/1 29/8/1 32/8/1
f 37/8/1 34/8/1 33/8/1
f 38/8/1 34/8/1 37/8/1
f 39/4/1 36/4/1 35/4/1
f 40/4/1 36/4/1 39/4/1
f 41/4/1 38/4/1 37/4/1
f 42/4/1 38/4/1 41/4/1
f 43/8/1 41/8/1 40/8/1
f 44/8/1 41/8/1 43/8/1
f 47/8/1 46/8/1 45/8/1
f 48/8/1 46/8/1 47/8/1
f 51/4/1 50/4/1 49/4/1
f 52/4/1 50/4/1 51/4/1
f 55/4/1 54/4/1 53/4/1
f 56/4/1 54/4/1 55/4/1
f 60/8/1 58/8/1 57/8/1
f 61/8/1 58/8/1 60/8/1
f 62/8/1 60/8/1 59/8/1
f 63/8/1 60/8/1 62/8/1
f 66/1/1 65/1/1 64/1/1
f 67/1/1 65/1/1 66/1/1
f 68/8/2 69/8/2 70/8/2
f 70/8/2 69/8/2 71/8/2
f 71/8/2 72/8/2 73/8/2
f 73/8/2 72/8/2 74/8/2
f 75/4/2 76/4/2 77/4/2
f 77/4/2 76/4/2 78/4/2
f 79/8/2 80/8/2 81/8/2
f 81/8/2 80/8/2 82/8/2
f 83/4/2 84/4/2 85/4/2
f 85/4/2 84/4/2 86/4/2
f 87/8/2 88/8/2 90/8/2
f 89/8/2 90/8/2 91/8/2
f 91/8/2 90/8/2 92/8/2
f 92/8/2 90/8/2 93/8/2
f 90/8/2 88/8/2 94/8/2
f 93/8/2 90/8/2 94/8/2
f 95/7/2 96/7/2 97/7/2
f 97/7/2 96/7/2 98/7/2
f 94/8/2 88/8/2 99/8/2
f 99/8/2 88/8/2 100/8/2
f 100/8/2 101/8/2 104/8/2
f 104/8/2 101/8/2 105/8/2
f 102/4/2 103/4/2 106/4/2
f 106/4/2 103/4/2 107/4/2
f 104/4/2 105/4/2 108/4/2
f 108/4/2 105/4/2 109/4/2
f 107/8/2 108/8/2 110/8/2
f 110/8/2 108/8/2 111/8/2
f 112/1/2 113/1/2 115/1/2
f 113/8/2 114/8/2 116/8/2
f 115/1/2 113/1/2 116/1/2
f 116/8/2 114/8/2 117/8/2
f 117/8/2 118/8/2 119/8/2
f 116/8/2 117/8/2 119/8/2
f 119/8/2 118/8/2 120/8/2
f 120/8/2 118/8/2 122/8/2
f 122/8/2 118/8/2 123/8/2
f 121/8/2 122/8/2 125/8/2
f 123/8/2 124/8/2 125/8/2
f 122/8/2 123/8/2 125/8/2
f 125/8/2 124/8/2 126/8/2
f 125/4/2 126/4/2 127/4/2
f 127/4/2 126/4/2 128/4/2
f 133/4/3 130/4/3 129/4/3
f 134/4/3 130/4/3 133/4/3
f 135/1/3 132/1/3 131/1/3
f 136/1/3 132/1/3 135/1/3
f 142/8/3 138/8/3 137/8/3
f 143/8/3 138/8/3 142/8/3
f 144/4/3 139/4/3 138/4/3
f 144/8/3 138/8/3 143/8/3
f 145/4/3 139/4/3 144/4/3
f 147/8/3 141/8/3 140/8/3
f 148/8/3 141/8/3 147/8/3
f 149/8/3 141/8/3 148/8/3
f 150/7/3 143/7/3 142/7/3
f 150/8/3 141/8/3 149/8/3
f 150/7/3 142/7/3 141/7/3
f 151/5/3 144/5/3 143/5/3
f 151/7/3 143/7/3 150/7/3
f 152/5/3 144/5/3 151/5/3
f 153/8/3 149/8/3 148/8/3
f 154/6/3 150/6/3 149/6/3
f 154/8/3 149/8/3 153/8/3
f 155/6/3 154/6/3 153/6/3
f 156/7/3 151/7/3 150/7/3
f 156/6/3 154/6/3 155/6/3
f 156/6/3 150/6/3 154/6/3
f 157/1/3 152/1/3 151/1/3
f 157/7/3 151/7/3 156/7/3
f 158/1/3 152/1/3 157/1/3
f 159/8/3 156/8/3 155/8/3
f 160/8/3 156/8/3 159/8/3
f 161/8/3 156/8/3 160/8/3
f 162/7/3 157/7/3 156/7/3
f 162/8/3 156/8/3 161/8/3
f 163/7/3 157/7/3 162/7/3
f 164/5/3 158/5/3 157/5/3
f 164/7/3 157/7/3 163/7/3
f 165/5/3 158/5/3 164/5/3
f 166/8/3 146/8/3 145/8/3
f 167/8/3 146/8/3 166/8/3
f 168/8/3 162/8/3 161/8/3
f 169/8/3 162/8/3 168/8/3
f 170/8/3 165/8/3 164/8/3
f 170/8/3 164/8/3 163/8/3
f 171/4/3 166/4/3 165/4/3
f 171/8/3 165/8/3 170/8/3
f 172/4/3 166/4/3 171/4/3
f 175/8/3 174/8/3 173/8/3
f 176/8/3 174/8/3 175/8/3
f 177/8/3 174/8/3 176/8/3
f 180/8/3 179/8/3 178/8/3
f 181/8/3 179/8/3 180/8/3
f 185/1/3 183/1/3 182/1/3
f 186/8/3 184/8/3 183/8/3
f 186/1/3 183/1/3 185/1/3
f 187/8/3 184/8/3 186/8/3
f 191/8/3 189/8/3 188/8/3
f 192/8/3 189/8/3 191/8/3
f 193/8/3 191/8/3 190/8/3
f 194/8/3 191/8/3 193/8/3
f 195/8/4 196/8/4 197/8/4
f 197/8/4 196/8/4 198/8/4
f 198/8/4 199/8/4 200/8/4
f 200/8/4 199/8/4 201/8/4
f 200/6/4 201/6/4 202/6/4
f 202/6/4 201/6/4 203/6/4
f 204/8/4 205/8/4 206/8/4
f 206/8/4 205/8/4 207/8/4
f 208/8/4 209/8/4 210/8/4
f 210/8/4 209/8/4 211/8/4
f 212/8/4 213/8/4 214/8/4
f 214/8/4 213/8/4 215/8/4
f 216/1/4 217/1/4 223/1/4
f 217/8/4 218/8/4 224/8/4
f 223/1/4 217/1/4 224/1/4
f 224/8/4 218/8/4 225/8/4
f 219/8/4 220/8/4 226/8/4
f 220/4/4 221/4/4 227/4/4
f 226/8/4 220/8/4 227/8/4
f 227/4/4 221/4/4 228/4/4
f 225/8/4 226/8/4 230/8/4
f 222/8/4 223/8/4 230/8/4
f 224/8/4 225/8/4 230/8/4
f 223/8/4 224/8/4 230/8/4
f 230/8/4 226/8/4 231/8/4
f 222/8/4 230/8/4 233/8/4
f 233/8/4 230/8/4 234/8/4
f 232/8/4 233/8/4 236/8/4
f 234/8/4 235/8/4 236/8/4
f 233/8/4 234/8/4 236/8/4
f 236/8/4 235/8/4 237/8/4
f 228/8/4 229/8/4 239/8/4
f 239/8/4 229/8/4 240/8/4
f 237/8/4 238/8/4 241/8/4
f 238/4/4 239/4/4 242/4/4
f 241/8/4 238/8/4 242/8/4
f 242/4/4 239/4/4 243/4/4
f 244/8/4 245/8/4 248/8/4
f 248/8/4 245/8/4 249/8/4
f 245/4/4 246/4/4 250/4/4
f 249/8/4 245/8/4 250/8/4
f 248/8/4 249/8/4 251/8/4
f 247/8/4 248/8/4 251/8/4
f 250/4/4 246/4/4 252/4/4
f 252/4/4 246/4/4 253/4/4
f 247/8/4 251/8/4 254/8/4
f 251/8/4 252/8/4 254/8/4
f 254/8/4 252/8/4 255/8/4
f 255/8/4 252/8/4 256/8/4
f 255/8/4 256/8/4 258/8/4
f 256/4/4 257/4/4 259/4/4
f 258/8/4 256/8/4 259/8/4
f 259/4/4 257/4/4 260/4/4
f 261/4/4 262/4/4 263/4/4
f 263/4/4 262/4/4 264/4/4
f 264/4/4 265/4/4 266/4/4
f 266/4/4 265/4/4 267/4/4
f 270/8/5 269/8/5 268/8/5
f 271/8/5 269/8/5 270/8/5
f 274/8/5 273/8/5 272/8/5
f 275/8/5 273/8/5 274/8/5
f 281/8/5 277/8/5 276/8/5
f 282/6/5 278/6/5 277/6/5
f 282/8/5 277/8/5 281/8/5
f 283/8/5 279/8/5 278/8/5
f 283/6/5 278/6/5 282/6/5
f 284/8/5 281/8/5 280/8/5
f 285/8/5 279/8/5 283/8/5
f 286/8/5 279/8/5 285/8/5
f 287/8/5 284/8/5 280/8/5
f 287/8/5 285/8/5 284/8/5
f 288/8/5 285/8/5 287/8/5
f 294/2/5 290/2/5 289/2/5
f 294/2/5 291/2/5 290/2/5
f 295/2/5 291/2/5 294/2/5
f 296/1/5 293/1/5 292/1/5
f 297/1/5 293/1/5 296/1/5
f 300/1/5 299/1/5 298/1/5
f 301/1/5 299/1/5 300/1/5
f 302/8/5 301/8/5 300/8/5
f 303/8/5 301/8/5 302/8/5
f 308/8/5 305/8/5 304/8/5
f 309/8/5 305/8/5 308/8/5
f 310/8/5 307/8/5 306/8/5
f 311/8/5 307/8/5 310/8/5
f 314/8/5 313/8/5 312/8/5
f 315/8/5 313/8/5 314/8/5
f 320/8/5 317/8/5 316/8/5
f 321/8/5 317/8/5 320/8/5
f 322/8/5 319/8/5 318/8/5
f 323/8/5 319/8/5 322/8/5
f 328/8/5 325/8/5 324/8/5
f 329/8/5 325/8/5 328/8/5
f 332/8/5 327/8/5 326/8/5
f 333/8/5 327/8/5 332/8/5
f 334/8/5 330/8/5 329/8/5
f 335/8/5 330/8/5 334/8/5
f 336/8/5 332/8/5 331/8/5
f 337/8/5 332/8/5 336/8/5
f 340/4/5 339/4/5 338/4/5
f 341/4/5 339/4/5 340/4/5
f 344/4/5 343/4/5 342/4/5
f 345/4/5 343/4/5 344/4/5
f 346/4/5 343/4/5 345/4/5
f 347/4/5 343/4/5 346/4/5
f 350/4/5 349/4/5 348/4/5
f 351/4/5 349/4/5 350/4/5
f 352/1/6 353/1/6 354/1/6
f 354/1/6 353/1/6 355/1/6
f 356/8/6 357/8/6 358/8/6
f 358/8/6 357/8/6 359/8/6
f 360/8/6 361/8/6 362/8/6
f 362/8/6 361/8/6 363/8/6
f 364/4/6 365/4/6 366/4/6
f 366/4/6 365/4/6 367/4/6
f 368/4/6 369/4/6 371/4/6
f 371/4/6 369/4/6 372/4/6
f 370/4/6 371/4/6 374/4/6
f 374/4/6 371/4/6 375/4/6
f 372/4/6 373/4/6 376/4/6
f 376/4/6 373/4/6 377/4/6
f 375/4/6 376/4/6 378/4/6
f 378/4/6 376/4/6 379/4/6
f 379/4/6 376/4/6 380/4/6
f 380/4/6 376/4/6 381/4/6
f 379/4/6 380/4/6 382/4/6
f 382/4/6 380/4/6 383/4/6
f 384/8/6 385/8/6 386/8/6
f 386/8/6 385/8/6 387/8/6
