# MagicaVoxel @ Ephtracy

# material
mtllib NinjaJumpTop.mtl
usemtl palette

# normals
vn -1 0 0
vn 1 0 0
vn 0 0 1
vn 0 0 -1
vn 0 -1 0
vn 0 1 0

# texcoords
vt 0.0605469 0.5
vt 0.369141 0.5
vt 0.521484 0.5
vt 0.845703 0.5
vt 0.876953 0.5
vt 0.986328 0.5
vt 0.990234 0.5
vt 0.994141 0.5

# verts
v -3 1.5 3.5
v -3 1.5 2.5
v -3 1.5 -0.5
v -3 2.5 3.5
v -3 2.5 2.5
v -3 2.5 1.5
v -3 2.5 -0.5
v -3 2.5 -1.5
v -3 4.5 1.5
v -3 4.5 -1.5
v -3 5.5 1.5
v -3 5.5 -1.5
v -2 -6.5 0.5
v -2 -6.5 -0.5
v -2 -5.5 1.5
v -2 -5.5 0.5
v -2 -5.5 -0.5
v -2 -5.5 -1.5
v -2 1.5 1.5
v -2 1.5 -0.5
v -2 2.5 -0.5
v -2 2.5 -1.5
v -2 2.5 -2.5
v -2 4.5 2.5
v -2 4.5 1.5
v -2 4.5 -1.5
v -2 4.5 -2.5
v -2 5.5 2.5
v -2 5.5 1.5
v -2 5.5 -1.5
v -2 5.5 -2.5
v -2 6.5 1.5
v -2 6.5 -1.5
v -1 1.5 -1.5
v -1 1.5 -2.5
v -1 2.5 -1.5
v -1 2.5 -2.5
v -1 3.5 -2.5
v -1 3.5 -3.5
v -1 4.5 -2.5
v -1 4.5 -3.5
v 1 -6.5 0.5
v 1 -6.5 -0.5
v 1 -5.5 0.5
v 1 -5.5 -0.5
v 1 -4.5 0.5
v 1 -4.5 -0.5
v 2 1.5 3.5
v 2 1.5 2.5
v 2 1.5 1.5
v 2 2.5 3.5
v 2 2.5 2.5
v 2 2.5 1.5
v -2 1.5 3.5
v -2 1.5 2.5
v -2 1.5 1.5
v -2 2.5 3.5
v -2 2.5 2.5
v -2 2.5 1.5
v -1 -6.5 0.5
v -1 -6.5 -0.5
v -1 -5.5 0.5
v -1 -5.5 -0.5
v -1 -4.5 0.5
v -1 -4.5 -0.5
v 1 1.5 -1.5
v 1 1.5 -2.5
v 1 2.5 -1.5
v 1 2.5 -2.5
v 1 3.5 -2.5
v 1 3.5 -3.5
v 1 4.5 -2.5
v 1 4.5 -3.5
v 2 -6.5 0.5
v 2 -6.5 -0.5
v 2 -5.5 1.5
v 2 -5.5 0.5
v 2 -5.5 -0.5
v 2 -5.5 -1.5
v 2 1.5 1.5
v 2 1.5 -0.5
v 2 2.5 -0.5
v 2 2.5 -1.5
v 2 2.5 -2.5
v 2 4.5 2.5
v 2 4.5 1.5
v 2 4.5 -1.5
v 2 4.5 -2.5
v 2 5.5 2.5
v 2 5.5 1.5
v 2 5.5 -1.5
v 2 5.5 -2.5
v 2 6.5 1.5
v 2 6.5 -1.5
v 3 1.5 3.5
v 3 1.5 2.5
v 3 1.5 -0.5
v 3 2.5 3.5
v 3 2.5 2.5
v 3 2.5 1.5
v 3 2.5 -0.5
v 3 2.5 -1.5
v 3 4.5 1.5
v 3 4.5 -1.5
v 3 5.5 1.5
v 3 5.5 -1.5
v -3 1.5 3.5
v -3 2.5 3.5
v -2 1.5 3.5
v -2 2.5 3.5
v 2 1.5 3.5
v 2 2.5 3.5
v 3 1.5 3.5
v 3 2.5 3.5
v -2 4.5 2.5
v -2 5.5 2.5
v 2 4.5 2.5
v 2 5.5 2.5
v -3 2.5 1.5
v -3 4.5 1.5
v -3 5.5 1.5
v -2 -5.5 1.5
v -2 1.5 1.5
v -2 2.5 1.5
v -2 3.5 1.5
v -2 4.5 1.5
v -2 5.5 1.5
v -2 6.5 1.5
v -1 0.5 1.5
v -1 1.5 1.5
v -1 3.5 1.5
v -1 4.5 1.5
v 0 -5.5 1.5
v 0 0.5 1.5
v 1 -5.5 1.5
v 1 1.5 1.5
v 1 3.5 1.5
v 1 4.5 1.5
v 2 -5.5 1.5
v 2 1.5 1.5
v 2 2.5 1.5
v 2 3.5 1.5
v 2 4.5 1.5
v 2 5.5 1.5
v 2 6.5 1.5
v 3 2.5 1.5
v 3 4.5 1.5
v 3 5.5 1.5
v -2 -6.5 0.5
v -2 -5.5 0.5
v -1 -6.5 0.5
v -1 -5.5 0.5
v 1 -6.5 0.5
v 1 -5.5 0.5
v 2 -6.5 0.5
v 2 -5.5 0.5
v -1 -5.5 -0.5
v -1 -4.5 -0.5
v 1 -5.5 -0.5
v 1 -4.5 -0.5
v -1 -5.5 0.5
v -1 -4.5 0.5
v 0 -5.5 0.5
v 0 -4.5 0.5
v 1 -5.5 0.5
v 1 -4.5 0.5
v -3 1.5 -0.5
v -3 2.5 -0.5
v -2 -6.5 -0.5
v -2 -5.5 -0.5
v -2 1.5 -0.5
v -2 2.5 -0.5
v -1 -6.5 -0.5
v -1 -5.5 -0.5
v 1 -6.5 -0.5
v 1 -5.5 -0.5
v 2 -6.5 -0.5
v 2 -5.5 -0.5
v 2 1.5 -0.5
v 2 2.5 -0.5
v 3 1.5 -0.5
v 3 2.5 -0.5
v -3 2.5 -1.5
v -3 4.5 -1.5
v -3 5.5 -1.5
v -2 -5.5 -1.5
v -2 2.5 -1.5
v -2 4.5 -1.5
v -2 5.5 -1.5
v -2 6.5 -1.5
v -1 1.5 -1.5
v -1 2.5 -1.5
v 1 1.5 -1.5
v 1 2.5 -1.5
v 2 -5.5 -1.5
v 2 2.5 -1.5
v 2 4.5 -1.5
v 2 5.5 -1.5
v 2 6.5 -1.5
v 3 2.5 -1.5
v 3 4.5 -1.5
v 3 5.5 -1.5
v -2 2.5 -2.5
v -2 4.5 -2.5
v -2 5.5 -2.5
v -1 1.5 -2.5
v -1 2.5 -2.5
v -1 3.5 -2.5
v -1 4.5 -2.5
v 1 1.5 -2.5
v 1 2.5 -2.5
v 1 3.5 -2.5
v 1 4.5 -2.5
v 2 2.5 -2.5
v 2 4.5 -2.5
v 2 5.5 -2.5
v -1 3.5 -3.5
v -1 4.5 -3.5
v 1 3.5 -3.5
v 1 4.5 -3.5
v -2 -6.5 0.5
v -1 -6.5 0.5
v 1 -6.5 0.5
v 2 -6.5 0.5
v -2 -6.5 -0.5
v -1 -6.5 -0.5
v 1 -6.5 -0.5
v 2 -6.5 -0.5
v -2 -5.5 1.5
v 0 -5.5 1.5
v 1 -5.5 1.5
v 2 -5.5 1.5
v -2 -5.5 0.5
v -1 -5.5 0.5
v 0 -5.5 0.5
v 1 -5.5 0.5
v 2 -5.5 0.5
v -2 -5.5 -0.5
v -1 -5.5 -0.5
v 1 -5.5 -0.5
v 2 -5.5 -0.5
v -2 -5.5 -1.5
v 2 -5.5 -1.5
v -1 -4.5 0.5
v 0 -4.5 0.5
v 1 -4.5 0.5
v -1 -4.5 -0.5
v 1 -4.5 -0.5
v -3 1.5 3.5
v -2 1.5 3.5
v 2 1.5 3.5
v 3 1.5 3.5
v -3 1.5 2.5
v -2 1.5 2.5
v 2 1.5 2.5
v 3 1.5 2.5
v -2 1.5 1.5
v 2 1.5 1.5
v -3 1.5 -0.5
v -2 1.5 -0.5
v 2 1.5 -0.5
v 3 1.5 -0.5
v -1 1.5 -1.5
v 1 1.5 -1.5
v -1 1.5 -2.5
v 1 1.5 -2.5
v -3 2.5 -0.5
v -2 2.5 -0.5
v 2 2.5 -0.5
v 3 2.5 -0.5
v -3 2.5 -1.5
v -2 2.5 -1.5
v -1 2.5 -1.5
v 1 2.5 -1.5
v 2 2.5 -1.5
v 3 2.5 -1.5
v -2 2.5 -2.5
v -1 2.5 -2.5
v 1 2.5 -2.5
v 2 2.5 -2.5
v -1 3.5 -2.5
v 1 3.5 -2.5
v -1 3.5 -3.5
v 1 3.5 -3.5
v -2 4.5 2.5
v 2 4.5 2.5
v -2 4.5 1.5
v -1 4.5 1.5
v 1 4.5 1.5
v 2 4.5 1.5
v -3 2.5 3.5
v -2 2.5 3.5
v 2 2.5 3.5
v 3 2.5 3.5
v -3 2.5 2.5
v -2 2.5 2.5
v 2 2.5 2.5
v 3 2.5 2.5
v -3 2.5 1.5
v -2 2.5 1.5
v 2 2.5 1.5
v 3 2.5 1.5
v -1 4.5 -2.5
v 1 4.5 -2.5
v -1 4.5 -3.5
v 1 4.5 -3.5
v -2 5.5 2.5
v 2 5.5 2.5
v -3 5.5 1.5
v -2 5.5 1.5
v 2 5.5 1.5
v 3 5.5 1.5
v -3 5.5 -1.5
v -2 5.5 -1.5
v 2 5.5 -1.5
v 3 5.5 -1.5
v -2 5.5 -2.5
v 2 5.5 -2.5
v -2 6.5 1.5
v 2 6.5 1.5
v -2 6.5 -1.5
v 2 6.5 -1.5

# faces
f 4/1/1 2/1/1 1/1/1
f 5/8/1 3/8/1 2/8/1
f 5/1/1 2/1/1 4/1/1
f 6/8/1 3/8/1 5/8/1
f 7/8/1 3/8/1 6/8/1
f 9/8/1 8/8/1 7/8/1
f 9/8/1 7/8/1 6/8/1
f 10/8/1 8/8/1 9/8/1
f 11/4/1 10/4/1 9/4/1
f 12/4/1 10/4/1 11/4/1
f 16/8/1 14/8/1 13/8/1
f 17/8/1 14/8/1 16/8/1
f 19/8/1 16/8/1 15/8/1
f 19/8/1 18/8/1 17/8/1
f 19/8/1 17/8/1 16/8/1
f 20/8/1 18/8/1 19/8/1
f 21/8/1 18/8/1 20/8/1
f 22/8/1 18/8/1 21/8/1
f 26/8/1 23/8/1 22/8/1
f 27/8/1 23/8/1 26/8/1
f 28/4/1 25/4/1 24/4/1
f 29/4/1 25/4/1 28/4/1
f 30/4/1 27/4/1 26/4/1
f 31/4/1 27/4/1 30/4/1
f 32/8/1 30/8/1 29/8/1
f 33/8/1 30/8/1 32/8/1
f 36/8/1 35/8/1 34/8/1
f 37/8/1 35/8/1 36/8/1
f 40/4/1 39/4/1 38/4/1
f 41/4/1 39/4/1 40/4/1
f 44/8/1 43/8/1 42/8/1
f 45/8/1 43/8/1 44/8/1
f 46/8/1 45/8/1 44/8/1
f 47/8/1 45/8/1 46/8/1
f 51/1/1 49/1/1 48/1/1
f 52/8/1 50/8/1 49/8/1
f 52/1/1 49/1/1 51/1/1
f 53/8/1 50/8/1 52/8/1
f 54/1/2 55/1/2 57/1/2
f 55/8/2 56/8/2 58/8/2
f 57/1/2 55/1/2 58/1/2
f 58/8/2 56/8/2 59/8/2
f 60/8/2 61/8/2 62/8/2
f 62/8/2 61/8/2 63/8/2
f 62/8/2 63/8/2 64/8/2
f 64/8/2 63/8/2 65/8/2
f 66/8/2 67/8/2 68/8/2
f 68/8/2 67/8/2 69/8/2
f 70/4/2 71/4/2 72/4/2
f 72/4/2 71/4/2 73/4/2
f 74/8/2 75/8/2 77/8/2
f 77/8/2 75/8/2 78/8/2
f 76/8/2 77/8/2 80/8/2
f 78/8/2 79/8/2 80/8/2
f 77/8/2 78/8/2 80/8/2
f 80/8/2 79/8/2 81/8/2
f 81/8/2 79/8/2 82/8/2
f 82/8/2 79/8/2 83/8/2
f 83/8/2 84/8/2 87/8/2
f 87/8/2 84/8/2 88/8/2
f 85/4/2 86/4/2 89/4/2
f 89/4/2 86/4/2 90/4/2
f 87/4/2 88/4/2 91/4/2
f 91/4/2 88/4/2 92/4/2
f 90/8/2 91/8/2 93/8/2
f 93/8/2 91/8/2 94/8/2
f 95/1/2 96/1/2 98/1/2
f 96/8/2 97/8/2 99/8/2
f 98/1/2 96/1/2 99/1/2
f 99/8/2 97/8/2 100/8/2
f 100/8/2 97/8/2 101/8/2
f 101/8/2 102/8/2 103/8/2
f 100/8/2 101/8/2 103/8/2
f 103/8/2 102/8/2 104/8/2
f 103/4/2 104/4/2 105/4/2
f 105/4/2 104/4/2 106/4/2
f 109/1/3 108/1/3 107/1/3
f 110/1/3 108/1/3 109/1/3
f 113/1/3 112/1/3 111/1/3
f 114/1/3 112/1/3 113/1/3
f 117/4/3 116/4/3 115/4/3
f 118/4/3 116/4/3 117/4/3
f 124/8/3 120/8/3 119/8/3
f 125/8/3 120/8/3 124/8/3
f 126/4/3 121/4/3 120/4/3
f 126/8/3 120/8/3 125/8/3
f 127/4/3 121/4/3 126/4/3
f 129/8/3 123/8/3 122/8/3
f 130/7/3 125/7/3 124/7/3
f 130/8/3 123/8/3 129/8/3
f 130/7/3 124/7/3 123/7/3
f 131/5/3 126/5/3 125/5/3
f 131/7/3 125/7/3 130/7/3
f 132/5/3 126/5/3 131/5/3
f 133/8/3 129/8/3 122/8/3
f 134/6/3 130/6/3 129/6/3
f 134/8/3 129/8/3 133/8/3
f 135/6/3 134/6/3 133/6/3
f 136/7/3 131/7/3 130/7/3
f 136/6/3 134/6/3 135/6/3
f 136/6/3 130/6/3 134/6/3
f 137/1/3 132/1/3 131/1/3
f 137/7/3 131/7/3 136/7/3
f 138/1/3 132/1/3 137/1/3
f 139/8/3 136/8/3 135/8/3
f 140/7/3 137/7/3 136/7/3
f 140/8/3 136/8/3 139/8/3
f 141/7/3 137/7/3 140/7/3
f 142/5/3 138/5/3 137/5/3
f 142/7/3 137/7/3 141/7/3
f 143/5/3 138/5/3 142/5/3
f 144/8/3 128/8/3 127/8/3
f 145/8/3 128/8/3 144/8/3
f 146/8/3 143/8/3 142/8/3
f 146/8/3 142/8/3 141/8/3
f 147/4/3 144/4/3 143/4/3
f 147/8/3 143/8/3 146/8/3
f 148/4/3 144/4/3 147/4/3
f 151/8/3 150/8/3 149/8/3
f 152/8/3 150/8/3 151/8/3
f 155/8/3 154/8/3 153/8/3
f 156/8/3 154/8/3 155/8/3
f 159/8/3 158/8/3 157/8/3
f 160/8/3 158/8/3 159/8/3
f 161/8/4 162/8/4 163/8/4
f 163/8/4 162/8/4 164/8/4
f 163/6/4 164/6/4 165/6/4
f 165/6/4 164/6/4 166/6/4
f 167/8/4 168/8/4 171/8/4
f 171/8/4 168/8/4 172/8/4
f 169/8/4 170/8/4 173/8/4
f 173/8/4 170/8/4 174/8/4
f 175/8/4 176/8/4 177/8/4
f 177/8/4 176/8/4 178/8/4
f 179/8/4 180/8/4 181/8/4
f 181/8/4 180/8/4 182/8/4
f 183/8/4 184/8/4 187/8/4
f 184/4/4 185/4/4 188/4/4
f 187/8/4 184/8/4 188/8/4
f 188/4/4 185/4/4 189/4/4
f 186/8/4 187/8/4 191/8/4
f 191/8/4 187/8/4 192/8/4
f 186/8/4 191/8/4 193/8/4
f 186/8/4 193/8/4 195/8/4
f 193/8/4 194/8/4 195/8/4
f 195/8/4 194/8/4 196/8/4
f 189/8/4 190/8/4 198/8/4
f 198/8/4 190/8/4 199/8/4
f 196/8/4 197/8/4 200/8/4
f 197/4/4 198/4/4 201/4/4
f 200/8/4 197/8/4 201/8/4
f 201/4/4 198/4/4 202/4/4
f 203/8/4 204/8/4 207/8/4
f 207/8/4 204/8/4 208/8/4
f 204/4/4 205/4/4 209/4/4
f 208/8/4 204/8/4 209/8/4
f 207/8/4 208/8/4 210/8/4
f 206/8/4 207/8/4 210/8/4
f 210/8/4 208/8/4 211/8/4
f 211/8/4 208/8/4 212/8/4
f 209/4/4 205/4/4 213/4/4
f 211/8/4 212/8/4 214/8/4
f 212/8/4 213/8/4 214/8/4
f 213/4/4 205/4/4 215/4/4
f 214/8/4 213/8/4 215/8/4
f 215/4/4 205/4/4 216/4/4
f 217/4/4 218/4/4 219/4/4
f 219/4/4 218/4/4 220/4/4
f 225/8/5 222/8/5 221/8/5
f 226/8/5 222/8/5 225/8/5
f 227/8/5 224/8/5 223/8/5
f 228/8/5 224/8/5 227/8/5
f 233/8/5 230/8/5 229/8/5
f 234/8/5 230/8/5 233/8/5
f 235/6/5 231/6/5 230/6/5
f 235/8/5 230/8/5 234/8/5
f 236/8/5 232/8/5 231/8/5
f 236/6/5 231/6/5 235/6/5
f 237/8/5 232/8/5 236/8/5
f 242/8/5 239/8/5 238/8/5
f 242/8/5 241/8/5 240/8/5
f 242/8/5 240/8/5 239/8/5
f 243/8/5 241/8/5 242/8/5
f 247/8/5 245/8/5 244/8/5
f 247/8/5 246/8/5 245/8/5
f 248/8/5 246/8/5 247/8/5
f 253/1/5 250/1/5 249/1/5
f 254/1/5 250/1/5 253/1/5
f 255/1/5 252/1/5 251/1/5
f 256/1/5 252/1/5 255/1/5
f 257/8/5 254/8/5 253/8/5
f 258/8/5 256/8/5 255/8/5
f 259/8/5 257/8/5 253/8/5
f 260/8/5 257/8/5 259/8/5
f 261/8/5 256/8/5 258/8/5
f 262/8/5 256/8/5 261/8/5
f 265/8/5 264/8/5 263/8/5
f 266/8/5 264/8/5 265/8/5
f 271/8/5 268/8/5 267/8/5
f 272/8/5 268/8/5 271/8/5
f 275/8/5 270/8/5 269/8/5
f 276/8/5 270/8/5 275/8/5
f 277/8/5 273/8/5 272/8/5
f 278/8/5 273/8/5 277/8/5
f 279/8/5 275/8/5 274/8/5
f 280/8/5 275/8/5 279/8/5
f 283/4/5 282/4/5 281/4/5
f 284/4/5 282/4/5 283/4/5
f 287/4/5 286/4/5 285/4/5
f 288/4/5 286/4/5 287/4/5
f 289/4/5 286/4/5 288/4/5
f 290/4/5 286/4/5 289/4/5
f 291/1/6 292/1/6 295/1/6
f 295/1/6 292/1/6 296/1/6
f 293/1/6 294/1/6 297/1/6
f 297/1/6 294/1/6 298/1/6
f 295/8/6 296/8/6 299/8/6
f 299/8/6 296/8/6 300/8/6
f 297/8/6 298/8/6 301/8/6
f 301/8/6 298/8/6 302/8/6
f 303/4/6 304/4/6 305/4/6
f 305/4/6 304/4/6 306/4/6
f 307/4/6 308/4/6 310/4/6
f 310/4/6 308/4/6 311/4/6
f 309/4/6 310/4/6 313/4/6
f 313/4/6 310/4/6 314/4/6
f 311/4/6 312/4/6 315/4/6
f 315/4/6 312/4/6 316/4/6
f 314/4/6 315/4/6 317/4/6
f 317/4/6 315/4/6 318/4/6
f 319/8/6 320/8/6 321/8/6
f 321/8/6 320/8/6 322/8/6
