# MagicaVoxel @ Ephtracy

# material
mtllib NinjaGrabWall.mtl
usemtl palette

# normals
vn -1 0 0
vn 1 0 0
vn 0 0 1
vn 0 0 -1
vn 0 -1 0
vn 0 1 0

# texcoords
vt 0.0605469 0.5
vt 0.369141 0.5
vt 0.521484 0.5
vt 0.845703 0.5
vt 0.876953 0.5
vt 0.986328 0.5
vt 0.990234 0.5
vt 0.994141 0.5

# verts
v -3.5 0 -2.5
v -3.5 0 -3.5
v -3.5 1 -2.5
v -3.5 1 -3.5
v -2.5 3 2.5
v -2.5 3 -1.5
v -2.5 4 2.5
v -2.5 4 -1.5
v -1.5 -4 2.5
v -1.5 -4 1.5
v -1.5 -4 0.5
v -1.5 -4 -1.5
v -1.5 -1 0.5
v -1.5 -1 -0.5
v -1.5 0 2.5
v -1.5 0 1.5
v -1.5 0 -0.5
v -1.5 0 -1.5
v -1.5 0 -2.5
v -1.5 1 3.5
v -1.5 1 2.5
v -1.5 1 -2.5
v -1.5 2 2.5
v -1.5 2 1.5
v -1.5 2 -0.5
v -1.5 2 -1.5
v -1.5 3 3.5
v -1.5 3 2.5
v -1.5 3 1.5
v -1.5 3 -0.5
v -1.5 3 -1.5
v -1.5 3 -2.5
v -1.5 4 3.5
v -1.5 4 2.5
v -1.5 4 -1.5
v -1.5 4 -2.5
v -1.5 5 2.5
v -1.5 5 -1.5
v -0.5 -5 4.5
v -0.5 -5 2.5
v -0.5 -5 -0.5
v -0.5 -5 -1.5
v -0.5 -4 4.5
v -0.5 -4 3.5
v -0.5 -4 2.5
v -0.5 -4 -0.5
v -0.5 -4 -1.5
v -0.5 -3 3.5
v -0.5 -3 2.5
v -0.5 0 5.5
v -0.5 0 4.5
v -0.5 0 2.5
v -0.5 1 5.5
v -0.5 1 4.5
v -0.5 1 3.5
v -0.5 1 2.5
v 0.5 -4 1.5
v 0.5 -4 -0.5
v 0.5 -3 1.5
v 0.5 -3 -0.5
v -0.5 -4 1.5
v -0.5 -4 0.5
v -0.5 -4 -0.5
v -0.5 -3 1.5
v -0.5 -3 0.5
v -0.5 -3 -0.5
v -0.5 0 -2.5
v -0.5 0 -3.5
v -0.5 1 -2.5
v -0.5 1 -3.5
v 0.5 -5 4.5
v 0.5 -5 2.5
v 0.5 -5 -0.5
v 0.5 -5 -1.5
v 0.5 -4 4.5
v 0.5 -4 3.5
v 0.5 -4 2.5
v 0.5 -4 -0.5
v 0.5 -4 -1.5
v 0.5 -3 3.5
v 0.5 -3 2.5
v 0.5 0 5.5
v 0.5 0 4.5
v 0.5 0 2.5
v 0.5 0 -1.5
v 0.5 0 -2.5
v 0.5 1 5.5
v 0.5 1 4.5
v 0.5 1 3.5
v 0.5 1 2.5
v 0.5 1 -1.5
v 0.5 1 -2.5
v 1.5 -4 2.5
v 1.5 -4 -1.5
v 1.5 1 3.5
v 1.5 1 2.5
v 1.5 1 -1.5
v 1.5 1 -2.5
v 1.5 3 3.5
v 1.5 3 2.5
v 1.5 3 -1.5
v 1.5 3 -2.5
v 1.5 4 3.5
v 1.5 4 2.5
v 1.5 4 -1.5
v 1.5 4 -2.5
v 1.5 5 2.5
v 1.5 5 -1.5
v 2.5 1 2.5
v 2.5 1 -1.5
v 2.5 2 1.5
v 2.5 2 -0.5
v 2.5 3 2.5
v 2.5 3 1.5
v 2.5 3 -0.5
v 2.5 3 -1.5
v 2.5 4 2.5
v 2.5 4 -1.5
v 3.5 2 1.5
v 3.5 2 -0.5
v 3.5 3 1.5
v 3.5 3 -0.5
v -0.5 0 5.5
v -0.5 1 5.5
v 0.5 0 5.5
v 0.5 1 5.5
v -0.5 -5 4.5
v -0.5 -4 4.5
v 0.5 -5 4.5
v 0.5 -4 4.5
v -1.5 1 3.5
v -1.5 3 3.5
v -1.5 4 3.5
v -0.5 -4 3.5
v -0.5 -3 3.5
v -0.5 1 3.5
v 0.5 -4 3.5
v 0.5 -3 3.5
v 0.5 1 3.5
v 1.5 1 3.5
v 1.5 3 3.5
v 1.5 4 3.5
v -2.5 3 2.5
v -2.5 4 2.5
v -1.5 -4 2.5
v -1.5 0 2.5
v -1.5 1 2.5
v -1.5 3 2.5
v -1.5 4 2.5
v -1.5 5 2.5
v -0.5 -4 2.5
v -0.5 -3 2.5
v -0.5 0 2.5
v -0.5 1 2.5
v 0.5 -4 2.5
v 0.5 -3 2.5
v 0.5 0 2.5
v 0.5 1 2.5
v 1.5 -4 2.5
v 1.5 1 2.5
v 1.5 3 2.5
v 1.5 4 2.5
v 1.5 5 2.5
v 2.5 1 2.5
v 2.5 3 2.5
v 2.5 4 2.5
v 2.5 2 1.5
v 2.5 3 1.5
v 3.5 2 1.5
v 3.5 3 1.5
v -0.5 -5 -0.5
v -0.5 -4 -0.5
v -0.5 -3 -0.5
v 0.5 -5 -0.5
v 0.5 -4 -0.5
v 0.5 -3 -0.5
v -3.5 0 -2.5
v -3.5 1 -2.5
v -2.5 0 -2.5
v -2.5 1 -2.5
v -1.5 0 -2.5
v -1.5 1 -2.5
v -0.5 -5 2.5
v -0.5 -4 2.5
v 0.5 -5 2.5
v 0.5 -4 2.5
v -0.5 -4 1.5
v -0.5 -3 1.5
v 0.5 -4 1.5
v 0.5 -3 1.5
v 2.5 2 -0.5
v 2.5 3 -0.5
v 3.5 2 -0.5
v 3.5 3 -0.5
v -2.5 3 -1.5
v -2.5 4 -1.5
v -1.5 -4 -1.5
v -1.5 0 -1.5
v -1.5 3 -1.5
v -1.5 4 -1.5
v -1.5 5 -1.5
v -0.5 -5 -1.5
v -0.5 -4 -1.5
v 0.5 -5 -1.5
v 0.5 -4 -1.5
v 0.5 0 -1.5
v 0.5 1 -1.5
v 1.5 -4 -1.5
v 1.5 1 -1.5
v 1.5 3 -1.5
v 1.5 4 -1.5
v 1.5 5 -1.5
v 2.5 1 -1.5
v 2.5 3 -1.5
v 2.5 4 -1.5
v -1.5 1 -2.5
v -1.5 3 -2.5
v -1.5 4 -2.5
v -0.5 0 -2.5
v -0.5 1 -2.5
v 0.5 0 -2.5
v 0.5 1 -2.5
v 1.5 1 -2.5
v 1.5 3 -2.5
v 1.5 4 -2.5
v -3.5 0 -3.5
v -3.5 1 -3.5
v -2.5 0 -3.5
v -2.5 1 -3.5
v -0.5 0 -3.5
v -0.5 1 -3.5
v -0.5 -5 4.5
v 0.5 -5 4.5
v -0.5 -5 2.5
v 0.5 -5 2.5
v -0.5 -5 -0.5
v 0.5 -5 -0.5
v -0.5 -5 -1.5
v 0.5 -5 -1.5
v -1.5 -4 2.5
v -0.5 -4 2.5
v 0.5 -4 2.5
v 1.5 -4 2.5
v -1.5 -4 1.5
v -0.5 -4 1.5
v 0.5 -4 1.5
v -1.5 -4 0.5
v -0.5 -4 0.5
v -0.5 -4 -0.5
v 0.5 -4 -0.5
v -1.5 -4 -1.5
v -0.5 -4 -1.5
v 0.5 -4 -1.5
v 1.5 -4 -1.5
v -0.5 -3 1.5
v 0.5 -3 1.5
v -0.5 -3 0.5
v -0.5 -3 -0.5
v 0.5 -3 -0.5
v -0.5 0 5.5
v 0.5 0 5.5
v -0.5 0 4.5
v 0.5 0 4.5
v -0.5 0 2.5
v 0.5 0 2.5
v -1.5 0 -1.5
v 0.5 0 -1.5
v -3.5 0 -2.5
v -2.5 0 -2.5
v -1.5 0 -2.5
v -0.5 0 -2.5
v 0.5 0 -2.5
v -3.5 0 -3.5
v -2.5 0 -3.5
v -0.5 0 -3.5
v -1.5 1 3.5
v -0.5 1 3.5
v 0.5 1 3.5
v 1.5 1 3.5
v -1.5 1 2.5
v -0.5 1 2.5
v 0.5 1 2.5
v 1.5 1 2.5
v 2.5 1 2.5
v 0.5 1 -1.5
v 1.5 1 -1.5
v 2.5 1 -1.5
v 0.5 1 -2.5
v 1.5 1 -2.5
v 2.5 2 1.5
v 3.5 2 1.5
v 2.5 2 -0.5
v 3.5 2 -0.5
v -2.5 3 2.5
v -1.5 3 2.5
v -1.5 3 1.5
v -1.5 3 -0.5
v -2.5 3 -1.5
v -1.5 3 -1.5
v -0.5 -4 4.5
v 0.5 -4 4.5
v -0.5 -4 3.5
v 0.5 -4 3.5
v -0.5 -3 3.5
v 0.5 -3 3.5
v -0.5 -3 2.5
v 0.5 -3 2.5
v -0.5 1 5.5
v 0.5 1 5.5
v -0.5 1 4.5
v 0.5 1 4.5
v -0.5 1 3.5
v 0.5 1 3.5
v -3.5 1 -2.5
v -2.5 1 -2.5
v -1.5 1 -2.5
v -0.5 1 -2.5
v -3.5 1 -3.5
v -2.5 1 -3.5
v -0.5 1 -3.5
v 2.5 3 1.5
v 3.5 3 1.5
v 2.5 3 -0.5
v 3.5 3 -0.5
v -1.5 4 3.5
v 1.5 4 3.5
v -2.5 4 2.5
v -1.5 4 2.5
v 1.5 4 2.5
v 2.5 4 2.5
v -2.5 4 -1.5
v -1.5 4 -1.5
v 1.5 4 -1.5
v 2.5 4 -1.5
v -1.5 4 -2.5
v 1.5 4 -2.5
v -1.5 5 2.5
v 1.5 5 2.5
v -1.5 5 -1.5
v 1.5 5 -1.5

# faces
f 3/1/1 2/1/1 1/1/1
f 4/1/1 2/1/1 3/1/1
f 7/4/1 6/4/1 5/4/1
f 8/4/1 6/4/1 7/4/1
f 13/6/1 11/6/1 10/6/1
f 13/8/1 12/8/1 11/8/1
f 14/8/1 12/8/1 13/8/1
f 15/8/1 10/8/1 9/8/1
f 16/6/1 13/6/1 10/6/1
f 16/8/1 10/8/1 15/8/1
f 16/6/1 14/6/1 13/6/1
f 17/8/1 12/8/1 14/8/1
f 17/6/1 14/6/1 16/6/1
f 18/8/1 12/8/1 17/8/1
f 21/7/1 16/7/1 15/7/1
f 21/7/1 17/7/1 16/7/1
f 21/7/1 18/7/1 17/7/1
f 22/8/1 19/8/1 18/8/1
f 23/8/1 21/8/1 20/8/1
f 23/7/1 18/7/1 21/7/1
f 24/7/1 18/7/1 23/7/1
f 25/7/1 18/7/1 24/7/1
f 26/8/1 22/8/1 18/8/1
f 26/7/1 18/7/1 25/7/1
f 27/8/1 23/8/1 20/8/1
f 28/5/1 24/5/1 23/5/1
f 28/8/1 23/8/1 27/8/1
f 29/1/1 25/1/1 24/1/1
f 29/5/1 24/5/1 28/5/1
f 30/5/1 26/5/1 25/5/1
f 30/1/1 25/1/1 29/1/1
f 31/8/1 22/8/1 26/8/1
f 31/5/1 26/5/1 30/5/1
f 32/8/1 22/8/1 31/8/1
f 33/4/1 28/4/1 27/4/1
f 34/4/1 28/4/1 33/4/1
f 35/4/1 32/4/1 31/4/1
f 36/4/1 32/4/1 35/4/1
f 37/8/1 35/8/1 34/8/1
f 38/8/1 35/8/1 37/8/1
f 43/8/1 40/8/1 39/8/1
f 44/8/1 40/8/1 43/8/1
f 45/8/1 40/8/1 44/8/1
f 46/8/1 42/8/1 41/8/1
f 47/8/1 42/8/1 46/8/1
f 48/8/1 45/8/1 44/8/1
f 49/8/1 45/8/1 48/8/1
f 53/1/1 51/1/1 50/1/1
f 54/8/1 52/8/1 51/8/1
f 54/1/1 51/1/1 53/1/1
f 55/8/1 52/8/1 54/8/1
f 56/8/1 52/8/1 55/8/1
f 59/8/1 58/8/1 57/8/1
f 60/8/1 58/8/1 59/8/1
f 61/6/2 62/6/2 64/6/2
f 62/8/2 63/8/2 65/8/2
f 64/6/2 62/6/2 65/6/2
f 65/8/2 63/8/2 66/8/2
f 67/8/2 68/8/2 69/8/2
f 69/8/2 68/8/2 70/8/2
f 71/8/2 72/8/2 75/8/2
f 75/8/2 72/8/2 76/8/2
f 76/8/2 72/8/2 77/8/2
f 73/8/2 74/8/2 78/8/2
f 78/8/2 74/8/2 79/8/2
f 76/8/2 77/8/2 80/8/2
f 80/8/2 77/8/2 81/8/2
f 82/1/2 83/1/2 87/1/2
f 83/8/2 84/8/2 88/8/2
f 87/1/2 83/1/2 88/1/2
f 88/8/2 84/8/2 89/8/2
f 89/8/2 84/8/2 90/8/2
f 85/8/2 86/8/2 91/8/2
f 91/8/2 86/8/2 92/8/2
f 93/8/2 94/8/2 96/8/2
f 96/8/2 94/8/2 97/8/2
f 95/8/2 96/8/2 99/8/2
f 99/8/2 96/8/2 100/8/2
f 97/8/2 98/8/2 101/8/2
f 101/8/2 98/8/2 102/8/2
f 99/4/2 100/4/2 103/4/2
f 103/4/2 100/4/2 104/4/2
f 101/4/2 102/4/2 105/4/2
f 105/4/2 102/4/2 106/4/2
f 104/8/2 105/8/2 107/8/2
f 107/8/2 105/8/2 108/8/2
f 109/8/2 110/8/2 111/8/2
f 111/8/2 110/8/2 112/8/2
f 109/8/2 111/8/2 113/8/2
f 113/8/2 111/8/2 114/8/2
f 112/8/2 110/8/2 115/8/2
f 115/8/2 110/8/2 116/8/2
f 113/4/2 114/4/2 117/4/2
f 114/4/2 115/4/2 117/4/2
f 115/4/2 116/4/2 117/4/2
f 117/4/2 116/4/2 118/4/2
f 119/4/2 120/4/2 121/4/2
f 121/4/2 120/4/2 122/4/2
f 125/1/3 124/1/3 123/1/3
f 126/1/3 124/1/3 125/1/3
f 129/8/3 128/8/3 127/8/3
f 130/8/3 128/8/3 129/8/3
f 136/8/3 132/8/3 131/8/3
f 137/8/3 135/8/3 134/8/3
f 138/8/3 135/8/3 137/8/3
f 139/8/3 132/8/3 136/8/3
f 140/8/3 132/8/3 139/8/3
f 141/4/3 133/4/3 132/4/3
f 141/8/3 132/8/3 140/8/3
f 142/4/3 133/4/3 141/4/3
f 148/4/3 144/4/3 143/4/3
f 149/4/3 144/4/3 148/4/3
f 151/8/3 146/8/3 145/8/3
f 152/8/3 146/8/3 151/8/3
f 153/7/3 147/7/3 146/7/3
f 153/8/3 146/8/3 152/8/3
f 154/7/3 147/7/3 153/7/3
f 156/8/3 153/8/3 152/8/3
f 157/8/3 153/8/3 156/8/3
f 159/8/3 156/8/3 155/8/3
f 159/8/3 158/8/3 157/8/3
f 159/8/3 157/8/3 156/8/3
f 160/8/3 158/8/3 159/8/3
f 162/8/3 150/8/3 149/8/3
f 163/8/3 150/8/3 162/8/3
f 164/8/3 161/8/3 160/8/3
f 165/4/3 162/4/3 161/4/3
f 165/8/3 161/8/3 164/8/3
f 166/4/3 162/4/3 165/4/3
f 169/4/3 168/4/3 167/4/3
f 170/4/3 168/4/3 169/4/3
f 174/8/3 172/8/3 171/8/3
f 174/8/3 173/8/3 172/8/3
f 175/8/3 173/8/3 174/8/3
f 176/8/3 173/8/3 175/8/3
f 179/1/3 178/1/3 177/1/3
f 180/1/3 178/1/3 179/1/3
f 181/8/3 180/8/3 179/8/3
f 182/8/3 180/8/3 181/8/3
f 183/8/4 184/8/4 185/8/4
f 185/8/4 184/8/4 186/8/4
f 187/8/4 188/8/4 189/8/4
f 189/8/4 188/8/4 190/8/4
f 191/4/4 192/4/4 193/4/4
f 193/4/4 192/4/4 194/4/4
f 195/4/4 196/4/4 199/4/4
f 199/4/4 196/4/4 200/4/4
f 197/8/4 198/8/4 203/8/4
f 202/8/4 203/8/4 204/8/4
f 203/8/4 198/8/4 205/8/4
f 204/8/4 203/8/4 205/8/4
f 205/8/4 198/8/4 206/8/4
f 206/8/4 207/8/4 208/8/4
f 205/8/4 206/8/4 208/8/4
f 208/8/4 207/8/4 209/8/4
f 200/8/4 201/8/4 211/8/4
f 211/8/4 201/8/4 212/8/4
f 209/8/4 210/8/4 213/8/4
f 210/4/4 211/4/4 214/4/4
f 213/8/4 210/8/4 214/8/4
f 214/4/4 211/4/4 215/4/4
f 216/8/4 217/8/4 220/8/4
f 219/8/4 220/8/4 221/8/4
f 220/8/4 217/8/4 222/8/4
f 221/8/4 220/8/4 222/8/4
f 222/8/4 217/8/4 223/8/4
f 217/4/4 218/4/4 224/4/4
f 223/8/4 217/8/4 224/8/4
f 224/4/4 218/4/4 225/4/4
f 226/1/4 227/1/4 228/1/4
f 228/1/4 227/1/4 229/1/4
f 228/8/4 229/8/4 230/8/4
f 230/8/4 229/8/4 231/8/4
f 234/8/5 233/8/5 232/8/5
f 235/8/5 233/8/5 234/8/5
f 238/8/5 237/8/5 236/8/5
f 239/8/5 237/8/5 238/8/5
f 244/8/5 241/8/5 240/8/5
f 244/8/5 243/8/5 242/8/5
f 244/8/5 242/8/5 241/8/5
f 245/8/5 243/8/5 244/8/5
f 246/8/5 243/8/5 245/8/5
f 247/6/5 245/6/5 244/6/5
f 248/6/5 245/6/5 247/6/5
f 249/8/5 248/8/5 247/8/5
f 250/8/5 243/8/5 246/8/5
f 251/8/5 249/8/5 247/8/5
f 252/8/5 249/8/5 251/8/5
f 253/8/5 243/8/5 250/8/5
f 254/8/5 243/8/5 253/8/5
f 257/2/5 256/2/5 255/2/5
f 258/2/5 256/2/5 257/2/5
f 259/2/5 256/2/5 258/2/5
f 262/1/5 261/1/5 260/1/5
f 263/1/5 261/1/5 262/1/5
f 264/8/5 263/8/5 262/8/5
f 265/8/5 263/8/5 264/8/5
f 270/8/5 267/8/5 266/8/5
f 271/8/5 267/8/5 270/8/5
f 272/8/5 267/8/5 271/8/5
f 273/1/5 269/1/5 268/1/5
f 274/8/5 270/8/5 269/8/5
f 274/1/5 269/1/5 273/1/5
f 274/8/5 271/8/5 270/8/5
f 275/8/5 271/8/5 274/8/5
f 280/8/5 277/8/5 276/8/5
f 281/8/5 277/8/5 280/8/5
f 282/8/5 279/8/5 278/8/5
f 283/8/5 279/8/5 282/8/5
f 286/8/5 284/8/5 283/8/5
f 287/8/5 284/8/5 286/8/5
f 288/8/5 286/8/5 285/8/5
f 289/8/5 286/8/5 288/8/5
f 292/4/5 291/4/5 290/4/5
f 293/4/5 291/4/5 292/4/5
f 296/4/5 295/4/5 294/4/5
f 297/4/5 296/4/5 294/4/5
f 298/4/5 297/4/5 294/4/5
f 299/4/5 297/4/5 298/4/5
f 300/8/6 301/8/6 302/8/6
f 302/8/6 301/8/6 303/8/6
f 304/8/6 305/8/6 306/8/6
f 306/8/6 305/8/6 307/8/6
f 308/1/6 309/1/6 310/1/6
f 310/1/6 309/1/6 311/1/6
f 310/8/6 311/8/6 312/8/6
f 312/8/6 311/8/6 313/8/6
f 314/1/6 315/1/6 318/1/6
f 316/8/6 317/8/6 319/8/6
f 318/1/6 315/1/6 319/1/6
f 315/8/6 316/8/6 319/8/6
f 319/8/6 317/8/6 320/8/6
f 321/4/6 322/4/6 323/4/6
f 323/4/6 322/4/6 324/4/6
f 325/4/6 326/4/6 328/4/6
f 328/4/6 326/4/6 329/4/6
f 327/4/6 328/4/6 331/4/6
f 331/4/6 328/4/6 332/4/6
f 329/4/6 330/4/6 333/4/6
f 333/4/6 330/4/6 334/4/6
f 332/4/6 333/4/6 335/4/6
f 335/4/6 333/4/6 336/4/6
f 337/8/6 338/8/6 339/8/6
f 339/8/6 338/8/6 340/8/6
