# MagicaVoxel @ Ephtracy

# material
mtllib NinjaAimFrontBot.mtl
usemtl palette

# normals
vn -1 0 0
vn 1 0 0
vn 0 0 1
vn 0 0 -1
vn 0 -1 0
vn 0 1 0

# texcoords
vt 0.0605469 0.5
vt 0.369141 0.5
vt 0.521484 0.5
vt 0.701172 0.5
vt 0.845703 0.5
vt 0.876953 0.5
vt 0.958984 0.5
vt 0.974609 0.5
vt 0.986328 0.5
vt 0.990234 0.5
vt 0.994141 0.5

# verts
v -3 0.5 -0
v -3 0.5 -3
v -3 1.5 -0
v -3 1.5 -1
v -3 1.5 -3
v -3 1.5 -4
v -3 3.5 -1
v -3 3.5 -4
v -3 4.5 -1
v -3 4.5 -4
v -2 -5.5 -2
v -2 -5.5 -3
v -2 -4.5 -1
v -2 -4.5 -2
v -2 -4.5 -3
v -2 -4.5 -4
v -2 0.5 1
v -2 0.5 -0
v -2 0.5 -1
v -2 0.5 -3
v -2 1.5 1
v -2 1.5 -0
v -2 1.5 -3
v -2 1.5 -4
v -2 1.5 -5
v -2 3.5 -0
v -2 3.5 -1
v -2 3.5 -4
v -2 3.5 -5
v -2 4.5 -0
v -2 4.5 -1
v -2 4.5 -4
v -2 4.5 -5
v -2 5.5 -1
v -2 5.5 -4
v -1 0.5 2
v -1 0.5 1
v -1 0.5 -4
v -1 0.5 -5
v -1 1.5 2
v -1 1.5 1
v -1 1.5 -4
v -1 1.5 -5
v -1 2.5 -5
v -1 2.5 -6
v -1 3.5 -5
v -1 3.5 -6
v 0 -2.5 5
v 0 -2.5 4
v 0 -1.5 5
v 0 -1.5 4
v 1 -5.5 -2
v 1 -5.5 -3
v 1 -4.5 -2
v 1 -4.5 -3
v 1 -3.5 6
v 1 -3.5 3
v 1 -3.5 -2
v 1 -3.5 -3
v 1 -2.5 5
v 1 -2.5 4
v 1 -2.5 3
v 1 -2.5 1
v 1 -2.5 -1
v 1 -1.5 5
v 1 -1.5 4
v 1 -1.5 3
v 1 -1.5 2
v 1 -1.5 1
v 1 -1.5 -1
v 1 -0.5 6
v 1 -0.5 5
v 1 -0.5 4
v 1 -0.5 3
v 1 -0.5 2
v 1 -0.5 1
v 1 0.5 4
v 1 0.5 3
v 1 0.5 2
v 1 1.5 5
v 1 1.5 4
v 1 1.5 3
v 1 1.5 1
v 1 1.5 -1
v 1 2.5 -0
v 1 2.5 -1
v 1 3.5 5
v 1 3.5 4
v 1 3.5 3
v 1 3.5 1
v 1 3.5 -0
v 1 4.5 4
v 1 4.5 3
v 2 -0.5 2
v 2 -0.5 1
v 2 -0.5 -1
v 2 0.5 2
v 2 0.5 1
v 2 0.5 -1
v 2 2.5 -1
v 2 2.5 -2
v 2 3.5 -1
v 2 3.5 -2
v -1 -5.5 -2
v -1 -5.5 -3
v -1 -4.5 -2
v -1 -4.5 -3
v -1 -3.5 -2
v -1 -3.5 -3
v -1 0.5 -0
v -1 0.5 -1
v -1 1.5 -0
v -1 1.5 -1
v 0 0.5 1
v 0 0.5 -0
v 0 1.5 1
v 0 1.5 -0
v 1 0.5 -4
v 1 0.5 -5
v 1 1.5 -4
v 1 1.5 -5
v 1 2.5 -1
v 1 2.5 -2
v 1 2.5 -5
v 1 2.5 -6
v 1 3.5 -1
v 1 3.5 -2
v 1 3.5 -5
v 1 3.5 -6
v 2 -5.5 -2
v 2 -5.5 -3
v 2 -4.5 -1
v 2 -4.5 -2
v 2 -4.5 -3
v 2 -4.5 -4
v 2 -3.5 6
v 2 -3.5 3
v 2 -2.5 5
v 2 -2.5 4
v 2 -2.5 3
v 2 -2.5 1
v 2 -2.5 -1
v 2 -1.5 5
v 2 -1.5 4
v 2 -1.5 3
v 2 -1.5 2
v 2 -1.5 1
v 2 -1.5 -1
v 2 -1.5 -2
v 2 -0.5 6
v 2 -0.5 5
v 2 -0.5 4
v 2 -0.5 3
v 2 -0.5 2
v 2 -0.5 1
v 2 -0.5 -1
v 2 -0.5 -2
v 2 0.5 4
v 2 0.5 3
v 2 0.5 2
v 2 0.5 1
v 2 0.5 -2
v 2 0.5 -3
v 2 1.5 5
v 2 1.5 4
v 2 1.5 3
v 2 1.5 2
v 2 1.5 1
v 2 1.5 -1
v 2 1.5 -3
v 2 1.5 -4
v 2 1.5 -5
v 2 2.5 -0
v 2 2.5 -1
v 2 3.5 5
v 2 3.5 4
v 2 3.5 3
v 2 3.5 1
v 2 3.5 -0
v 2 3.5 -1
v 2 3.5 -4
v 2 3.5 -5
v 2 4.5 4
v 2 4.5 3
v 2 4.5 -0
v 2 4.5 -1
v 2 4.5 -4
v 2 4.5 -5
v 2 5.5 -1
v 2 5.5 -4
v 3 -2.5 5
v 3 -2.5 4
v 3 -1.5 5
v 3 -1.5 4
v 3 -0.5 3
v 3 -0.5 2
v 3 -0.5 -2
v 3 0.5 3
v 3 0.5 2
v 3 0.5 -1
v 3 0.5 -2
v 3 0.5 -3
v 3 1.5 -3
v 3 1.5 -4
v 3 3.5 -1
v 3 3.5 -4
v 3 4.5 -1
v 3 4.5 -4
v 1 -3.5 6
v 1 -0.5 6
v 2 -3.5 6
v 2 -0.5 6
v 0 -2.5 5
v 0 -1.5 5
v 1 -2.5 5
v 1 -1.5 5
v 1 1.5 5
v 1 3.5 5
v 2 -2.5 5
v 2 -1.5 5
v 2 1.5 5
v 2 3.5 5
v 3 -2.5 5
v 3 -1.5 5
v 1 -1.5 4
v 1 -0.5 4
v 1 0.5 4
v 1 1.5 4
v 1 3.5 4
v 1 4.5 4
v 2 -1.5 4
v 2 -0.5 4
v 2 0.5 4
v 2 1.5 4
v 2 3.5 4
v 2 4.5 4
v 1 -0.5 3
v 1 0.5 3
v 2 -0.5 3
v 2 0.5 3
v 3 -0.5 3
v 3 0.5 3
v -1 0.5 2
v -1 1.5 2
v 0 0.5 2
v 0 1.5 2
v 1 -1.5 2
v 1 -0.5 2
v 1 0.5 2
v 1 1.5 2
v 2 -1.5 2
v 2 -0.5 2
v 2 0.5 2
v 2 1.5 2
v -2 0.5 1
v -2 1.5 1
v -1 0.5 1
v -1 1.5 1
v 1 -2.5 1
v 1 -1.5 1
v 1 1.5 1
v 1 3.5 1
v 2 -2.5 1
v 2 -1.5 1
v 2 1.5 1
v 2 3.5 1
v -3 0.5 -0
v -3 1.5 -0
v -2 0.5 -0
v -2 1.5 -0
v -2 3.5 -0
v -2 4.5 -0
v 1 3.5 -0
v 2 3.5 -0
v 2 4.5 -0
v -3 1.5 -1
v -3 3.5 -1
v -3 4.5 -1
v -2 -4.5 -1
v -2 0.5 -1
v -2 1.5 -1
v -2 2.5 -1
v -2 3.5 -1
v -2 4.5 -1
v -2 5.5 -1
v -1 -0.5 -1
v -1 0.5 -1
v -1 1.5 -1
v -1 2.5 -1
v -1 3.5 -1
v 0 -4.5 -1
v 0 -0.5 -1
v 1 -4.5 -1
v 1 -2.5 -1
v 1 -1.5 -1
v 1 -0.5 -1
v 1 0.5 -1
v 1 1.5 -1
v 1 2.5 -1
v 1 3.5 -1
v 2 -4.5 -1
v 2 -2.5 -1
v 2 -1.5 -1
v 2 -0.5 -1
v 2 0.5 -1
v 2 1.5 -1
v 2 2.5 -1
v 2 3.5 -1
v 2 4.5 -1
v 2 5.5 -1
v 3 0.5 -1
v 3 3.5 -1
v 3 4.5 -1
v -2 -5.5 -2
v -2 -4.5 -2
v -1 -5.5 -2
v -1 -4.5 -2
v 1 -5.5 -2
v 1 -4.5 -2
v 1 2.5 -2
v 1 3.5 -2
v 2 -5.5 -2
v 2 -4.5 -2
v 2 2.5 -2
v 2 3.5 -2
v -1 -4.5 -3
v -1 -3.5 -3
v 1 -4.5 -3
v 1 -3.5 -3
v 1 -1.5 5
v 1 -0.5 5
v 2 -1.5 5
v 2 -0.5 5
v 0 -2.5 4
v 0 -1.5 4
v 1 -2.5 4
v 1 -1.5 4
v 1 1.5 4
v 1 3.5 4
v 2 -2.5 4
v 2 -1.5 4
v 2 1.5 4
v 2 3.5 4
v 3 -2.5 4
v 3 -1.5 4
v 1 -3.5 3
v 1 -2.5 3
v 1 -1.5 3
v 1 -0.5 3
v 1 0.5 3
v 1 1.5 3
v 1 3.5 3
v 1 4.5 3
v 2 -3.5 3
v 2 -2.5 3
v 2 -1.5 3
v 2 -0.5 3
v 2 0.5 3
v 2 1.5 3
v 2 3.5 3
v 2 4.5 3
v 1 -0.5 2
v 1 0.5 2
v 2 -0.5 2
v 2 0.5 2
v 0 0.5 1
v 0 1.5 1
v 1 -1.5 1
v 1 -0.5 1
v 1 0.5 1
v 1 1.5 1
v 2 -1.5 1
v 2 -0.5 1
v 2 0.5 1
v 2 1.5 1
v -1 0.5 -0
v -1 1.5 -0
v 0 0.5 -0
v 0 1.5 -0
v 1 2.5 -0
v 1 3.5 -0
v 2 2.5 -0
v 2 3.5 -0
v -1 -4.5 -2
v -1 -3.5 -2
v 0 -4.5 -2
v 0 -3.5 -2
v 1 -4.5 -2
v 1 -3.5 -2
v 2 -0.5 -2
v 2 0.5 -2
v 3 -0.5 -2
v 3 0.5 -2
v -3 0.5 -3
v -3 1.5 -3
v -2 -5.5 -3
v -2 -4.5 -3
v -2 0.5 -3
v -2 1.5 -3
v -1 -5.5 -3
v -1 -4.5 -3
v 1 -5.5 -3
v 1 -4.5 -3
v 2 -5.5 -3
v 2 -4.5 -3
v 2 0.5 -3
v 2 1.5 -3
v 3 0.5 -3
v 3 1.5 -3
v -3 1.5 -4
v -3 3.5 -4
v -3 4.5 -4
v -2 -4.5 -4
v -2 1.5 -4
v -2 3.5 -4
v -2 4.5 -4
v -2 5.5 -4
v -1 0.5 -4
v -1 1.5 -4
v 1 0.5 -4
v 1 1.5 -4
v 2 -4.5 -4
v 2 1.5 -4
v 2 3.5 -4
v 2 4.5 -4
v 2 5.5 -4
v 3 1.5 -4
v 3 3.5 -4
v 3 4.5 -4
v -2 1.5 -5
v -2 3.5 -5
v -2 4.5 -5
v -1 0.5 -5
v -1 1.5 -5
v -1 2.5 -5
v -1 3.5 -5
v 1 0.5 -5
v 1 1.5 -5
v 1 2.5 -5
v 1 3.5 -5
v 2 1.5 -5
v 2 3.5 -5
v 2 4.5 -5
v -1 2.5 -6
v -1 3.5 -6
v 1 2.5 -6
v 1 3.5 -6
v -2 -5.5 -2
v -1 -5.5 -2
v 1 -5.5 -2
v 2 -5.5 -2
v -2 -5.5 -3
v -1 -5.5 -3
v 1 -5.5 -3
v 2 -5.5 -3
v -2 -4.5 -1
v 0 -4.5 -1
v 1 -4.5 -1
v 2 -4.5 -1
v -2 -4.5 -2
v -1 -4.5 -2
v 0 -4.5 -2
v 1 -4.5 -2
v 2 -4.5 -2
v -2 -4.5 -3
v -1 -4.5 -3
v 1 -4.5 -3
v 2 -4.5 -3
v -2 -4.5 -4
v 2 -4.5 -4
v 1 -3.5 6
v 2 -3.5 6
v 1 -3.5 3
v 2 -3.5 3
v -1 -3.5 -2
v 0 -3.5 -2
v 1 -3.5 -2
v -1 -3.5 -3
v 1 -3.5 -3
v 0 -2.5 5
v 1 -2.5 5
v 2 -2.5 5
v 3 -2.5 5
v 0 -2.5 4
v 1 -2.5 4
v 2 -2.5 4
v 3 -2.5 4
v 1 -2.5 1
v 2 -2.5 1
v 1 -2.5 -1
v 2 -2.5 -1
v 1 -1.5 4
v 2 -1.5 4
v 1 -1.5 3
v 2 -1.5 3
v 1 -1.5 2
v 2 -1.5 2
v 1 -1.5 1
v 2 -1.5 1
v 1 -0.5 3
v 2 -0.5 3
v 3 -0.5 3
v 1 -0.5 2
v 2 -0.5 2
v 3 -0.5 2
v 2 -0.5 1
v 2 -0.5 -1
v 2 -0.5 -2
v 3 -0.5 -2
v 1 0.5 4
v 2 0.5 4
v 1 0.5 3
v 2 0.5 3
v -1 0.5 2
v 0 0.5 2
v 1 0.5 2
v 2 0.5 2
v -2 0.5 1
v -1 0.5 1
v 0 0.5 1
v 1 0.5 1
v 2 0.5 1
v -3 0.5 -0
v -2 0.5 -0
v -1 0.5 -0
v 0 0.5 -0
v -2 0.5 -1
v -1 0.5 -1
v 2 0.5 -2
v 3 0.5 -2
v -3 0.5 -3
v -2 0.5 -3
v 2 0.5 -3
v 3 0.5 -3
v -1 0.5 -4
v 1 0.5 -4
v -1 0.5 -5
v 1 0.5 -5
v 1 1.5 5
v 2 1.5 5
v 1 1.5 4
v 2 1.5 4
v 1 1.5 1
v 2 1.5 1
v 1 1.5 -1
v 2 1.5 -1
v -3 1.5 -3
v -2 1.5 -3
v 2 1.5 -3
v 3 1.5 -3
v -3 1.5 -4
v -2 1.5 -4
v -1 1.5 -4
v 1 1.5 -4
v 2 1.5 -4
v 3 1.5 -4
v -2 1.5 -5
v -1 1.5 -5
v 1 1.5 -5
v 2 1.5 -5
v -1 2.5 -5
v 1 2.5 -5
v -1 2.5 -6
v 1 2.5 -6
v 1 3.5 4
v 2 3.5 4
v 1 3.5 3
v 2 3.5 3
v -2 3.5 -0
v 1 3.5 -0
v 2 3.5 -0
v -2 3.5 -1
v -1 3.5 -1
v 1 3.5 -1
v 2 3.5 -1
v 1 3.5 -2
v 2 3.5 -2
v 1 -2.5 4
v 2 -2.5 4
v 1 -2.5 3
v 2 -2.5 3
v 0 -1.5 5
v 1 -1.5 5
v 2 -1.5 5
v 3 -1.5 5
v 0 -1.5 4
v 1 -1.5 4
v 2 -1.5 4
v 3 -1.5 4
v 1 -1.5 1
v 2 -1.5 1
v 1 -1.5 -1
v 2 -1.5 -1
v 1 -0.5 6
v 2 -0.5 6
v 1 -0.5 5
v 2 -0.5 5
v 1 -0.5 4
v 2 -0.5 4
v 1 -0.5 3
v 2 -0.5 3
v 1 -0.5 2
v 2 -0.5 2
v 1 -0.5 1
v 2 -0.5 1
v 1 0.5 3
v 2 0.5 3
v 3 0.5 3
v 1 0.5 2
v 2 0.5 2
v 3 0.5 2
v 2 0.5 1
v 2 0.5 -1
v 3 0.5 -1
v 1 1.5 4
v 2 1.5 4
v 1 1.5 3
v 2 1.5 3
v -1 1.5 2
v 0 1.5 2
v 1 1.5 2
v 2 1.5 2
v -2 1.5 1
v -1 1.5 1
v 0 1.5 1
v 1 1.5 1
v 2 1.5 1
v -3 1.5 -0
v -2 1.5 -0
v -1 1.5 -0
v 0 1.5 -0
v -3 1.5 -1
v -2 1.5 -1
v -1 1.5 -1
v 1 2.5 -0
v 2 2.5 -0
v 1 2.5 -1
v 2 2.5 -1
v 1 2.5 -2
v 2 2.5 -2
v 1 3.5 5
v 2 3.5 5
v 1 3.5 4
v 2 3.5 4
v 1 3.5 1
v 2 3.5 1
v 1 3.5 -0
v 2 3.5 -0
v -1 3.5 -5
v 1 3.5 -5
v -1 3.5 -6
v 1 3.5 -6
v 1 4.5 4
v 2 4.5 4
v 1 4.5 3
v 2 4.5 3
v -2 4.5 -0
v 2 4.5 -0
v -3 4.5 -1
v -2 4.5 -1
v 2 4.5 -1
v 3 4.5 -1
v -3 4.5 -4
v -2 4.5 -4
v 2 4.5 -4
v 3 4.5 -4
v -2 4.5 -5
v 2 4.5 -5
v -2 5.5 -1
v 2 5.5 -1
v -2 5.5 -4
v 2 5.5 -4

# faces
f 3/11/1 2/11/1 1/11/1
f 4/11/1 2/11/1 3/11/1
f 5/11/1 2/11/1 4/11/1
f 7/11/1 6/11/1 5/11/1
f 7/11/1 5/11/1 4/11/1
f 8/11/1 6/11/1 7/11/1
f 9/5/1 8/5/1 7/5/1
f 10/5/1 8/5/1 9/5/1
f 14/11/1 12/11/1 11/11/1
f 15/11/1 12/11/1 14/11/1
f 19/11/1 14/11/1 13/11/1
f 19/11/1 15/11/1 14/11/1
f 19/11/1 16/11/1 15/11/1
f 20/11/1 16/11/1 19/11/1
f 21/11/1 18/11/1 17/11/1
f 22/11/1 18/11/1 21/11/1
f 23/11/1 16/11/1 20/11/1
f 24/11/1 16/11/1 23/11/1
f 28/11/1 25/11/1 24/11/1
f 29/11/1 25/11/1 28/11/1
f 30/5/1 27/5/1 26/5/1
f 31/5/1 27/5/1 30/5/1
f 32/5/1 29/5/1 28/5/1
f 33/5/1 29/5/1 32/5/1
f 34/11/1 32/11/1 31/11/1
f 35/11/1 32/11/1 34/11/1
f 40/11/1 37/11/1 36/11/1
f 41/11/1 37/11/1 40/11/1
f 42/11/1 39/11/1 38/11/1
f 43/11/1 39/11/1 42/11/1
f 46/5/1 45/5/1 44/5/1
f 47/5/1 45/5/1 46/5/1
f 50/8/1 49/8/1 48/8/1
f 51/8/1 49/8/1 50/8/1
f 54/11/1 53/11/1 52/11/1
f 55/11/1 53/11/1 54/11/1
f 58/11/1 55/11/1 54/11/1
f 59/11/1 55/11/1 58/11/1
f 60/8/1 57/8/1 56/8/1
f 61/8/1 57/8/1 60/8/1
f 62/8/1 57/8/1 61/8/1
f 65/8/1 60/8/1 56/8/1
f 69/4/1 64/4/1 63/4/1
f 70/4/1 64/4/1 69/4/1
f 71/8/1 65/8/1 56/8/1
f 72/8/1 65/8/1 71/8/1
f 73/4/1 67/4/1 66/4/1
f 74/4/1 67/4/1 73/4/1
f 75/4/1 69/4/1 68/4/1
f 76/4/1 69/4/1 75/4/1
f 78/4/1 75/4/1 74/4/1
f 79/4/1 75/4/1 78/4/1
f 81/4/1 78/4/1 77/4/1
f 82/4/1 78/4/1 81/4/1
f 85/7/1 84/7/1 83/7/1
f 86/7/1 84/7/1 85/7/1
f 87/4/1 81/4/1 80/4/1
f 88/4/1 81/4/1 87/4/1
f 90/7/1 85/7/1 83/7/1
f 91/7/1 85/7/1 90/7/1
f 92/4/1 89/4/1 88/4/1
f 93/4/1 89/4/1 92/4/1
f 97/11/1 95/11/1 94/11/1
f 97/11/1 96/11/1 95/11/1
f 98/11/1 96/11/1 97/11/1
f 99/11/1 96/11/1 98/11/1
f 102/11/1 101/11/1 100/11/1
f 103/11/1 101/11/1 102/11/1
f 104/11/2 105/11/2 106/11/2
f 106/11/2 105/11/2 107/11/2
f 106/11/2 107/11/2 108/11/2
f 108/11/2 107/11/2 109/11/2
f 110/11/2 111/11/2 112/11/2
f 112/11/2 111/11/2 113/11/2
f 114/11/2 115/11/2 116/11/2
f 116/11/2 115/11/2 117/11/2
f 118/11/2 119/11/2 120/11/2
f 120/11/2 119/11/2 121/11/2
f 122/1/2 123/1/2 126/1/2
f 126/1/2 123/1/2 127/1/2
f 124/5/2 125/5/2 128/5/2
f 128/5/2 125/5/2 129/5/2
f 130/11/2 131/11/2 133/11/2
f 133/11/2 131/11/2 134/11/2
f 136/8/2 137/8/2 138/8/2
f 138/8/2 137/8/2 139/8/2
f 139/8/2 137/8/2 140/8/2
f 132/11/2 133/11/2 142/11/2
f 133/11/2 134/11/2 142/11/2
f 134/11/2 135/11/2 142/11/2
f 136/8/2 138/8/2 143/8/2
f 141/4/2 142/4/2 147/4/2
f 142/11/2 135/11/2 148/11/2
f 147/4/2 142/4/2 148/4/2
f 148/11/2 135/11/2 149/11/2
f 136/8/2 143/8/2 150/8/2
f 150/8/2 143/8/2 151/8/2
f 144/4/2 145/4/2 152/4/2
f 152/4/2 145/4/2 153/4/2
f 146/4/2 147/4/2 154/4/2
f 154/4/2 147/4/2 155/4/2
f 148/4/2 149/4/2 156/4/2
f 149/11/2 135/11/2 157/11/2
f 156/4/2 149/4/2 157/4/2
f 157/11/2 135/11/2 162/11/2
f 162/11/2 135/11/2 163/11/2
f 158/4/2 159/4/2 165/4/2
f 165/4/2 159/4/2 166/4/2
f 160/4/2 161/4/2 167/4/2
f 167/4/2 161/4/2 168/4/2
f 163/11/2 135/11/2 170/11/2
f 170/11/2 135/11/2 171/11/2
f 168/7/2 169/7/2 173/7/2
f 173/7/2 169/7/2 174/7/2
f 164/4/2 165/4/2 175/4/2
f 175/4/2 165/4/2 176/4/2
f 168/7/2 173/7/2 178/7/2
f 178/7/2 173/7/2 179/7/2
f 171/11/2 172/11/2 181/11/2
f 181/11/2 172/11/2 182/11/2
f 176/4/2 177/4/2 183/4/2
f 183/4/2 177/4/2 184/4/2
f 179/5/2 180/5/2 185/5/2
f 185/5/2 180/5/2 186/5/2
f 181/5/2 182/5/2 187/5/2
f 187/5/2 182/5/2 188/5/2
f 186/11/2 187/11/2 189/11/2
f 189/11/2 187/11/2 190/11/2
f 191/8/2 192/8/2 193/8/2
f 193/8/2 192/8/2 194/8/2
f 195/1/2 196/1/2 198/1/2
f 196/11/2 197/11/2 199/11/2
f 198/1/2 196/1/2 199/1/2
f 199/11/2 197/11/2 200/11/2
f 200/11/2 197/11/2 201/11/2
f 201/11/2 202/11/2 203/11/2
f 200/11/2 201/11/2 203/11/2
f 200/11/2 203/11/2 205/11/2
f 203/11/2 204/11/2 205/11/2
f 205/11/2 204/11/2 206/11/2
f 205/5/2 206/5/2 207/5/2
f 207/5/2 206/5/2 208/5/2
f 211/8/3 210/8/3 209/8/3
f 212/8/3 210/8/3 211/8/3
f 215/8/3 214/8/3 213/8/3
f 216/8/3 214/8/3 215/8/3
f 221/4/3 218/4/3 217/4/3
f 222/4/3 218/4/3 221/4/3
f 223/8/3 220/8/3 219/8/3
f 224/8/3 220/8/3 223/8/3
f 231/4/3 226/4/3 225/4/3
f 232/4/3 226/4/3 231/4/3
f 233/4/3 228/4/3 227/4/3
f 234/4/3 228/4/3 233/4/3
f 235/4/3 230/4/3 229/4/3
f 236/4/3 230/4/3 235/4/3
f 239/4/3 238/4/3 237/4/3
f 240/4/3 238/4/3 239/4/3
f 241/1/3 240/1/3 239/1/3
f 242/1/3 240/1/3 241/1/3
f 245/11/3 244/11/3 243/11/3
f 246/11/3 244/11/3 245/11/3
f 249/1/3 246/1/3 245/1/3
f 250/1/3 246/1/3 249/1/3
f 251/4/3 248/4/3 247/4/3
f 252/4/3 248/4/3 251/4/3
f 253/4/3 250/4/3 249/4/3
f 254/4/3 250/4/3 253/4/3
f 257/11/3 256/11/3 255/11/3
f 258/11/3 256/11/3 257/11/3
f 263/4/3 260/4/3 259/4/3
f 264/4/3 260/4/3 263/4/3
f 265/7/3 262/7/3 261/7/3
f 266/7/3 262/7/3 265/7/3
f 269/11/3 268/11/3 267/11/3
f 270/11/3 268/11/3 269/11/3
f 273/5/3 272/5/3 271/5/3
f 274/5/3 272/5/3 273/5/3
f 275/5/3 272/5/3 274/5/3
f 281/11/3 277/11/3 276/11/3
f 282/11/3 277/11/3 281/11/3
f 283/5/3 278/5/3 277/5/3
f 283/11/3 277/11/3 282/11/3
f 284/5/3 278/5/3 283/5/3
f 286/11/3 280/11/3 279/11/3
f 287/11/3 280/11/3 286/11/3
f 288/10/3 282/10/3 281/10/3
f 289/6/3 283/6/3 282/6/3
f 289/10/3 282/10/3 288/10/3
f 290/6/3 283/6/3 289/6/3
f 291/11/3 286/11/3 279/11/3
f 292/9/3 287/9/3 286/9/3
f 292/11/3 286/11/3 291/11/3
f 293/9/3 292/9/3 291/9/3
f 294/9/3 292/9/3 293/9/3
f 295/9/3 292/9/3 294/9/3
f 296/9/3 287/9/3 292/9/3
f 296/9/3 292/9/3 295/9/3
f 297/10/3 288/10/3 287/10/3
f 297/9/3 287/9/3 296/9/3
f 297/10/3 289/10/3 288/10/3
f 298/10/3 289/10/3 297/10/3
f 299/1/3 290/1/3 289/1/3
f 299/10/3 289/10/3 298/10/3
f 300/1/3 290/1/3 299/1/3
f 301/11/3 294/11/3 293/11/3
f 302/11/3 294/11/3 301/11/3
f 303/4/3 296/4/3 295/4/3
f 304/11/3 297/11/3 296/11/3
f 304/4/3 296/4/3 303/4/3
f 305/10/3 298/10/3 297/10/3
f 305/11/3 297/11/3 304/11/3
f 306/10/3 298/10/3 305/10/3
f 309/11/3 285/11/3 284/11/3
f 310/11/3 285/11/3 309/11/3
f 311/11/3 308/11/3 307/11/3
f 311/11/3 307/11/3 306/11/3
f 311/11/3 306/11/3 305/11/3
f 312/5/3 309/5/3 308/5/3
f 312/11/3 308/11/3 311/11/3
f 313/5/3 309/5/3 312/5/3
f 316/11/3 315/11/3 314/11/3
f 317/11/3 315/11/3 316/11/3
f 322/11/3 319/11/3 318/11/3
f 323/11/3 319/11/3 322/11/3
f 324/9/3 321/9/3 320/9/3
f 325/9/3 321/9/3 324/9/3
f 328/11/3 327/11/3 326/11/3
f 329/11/3 327/11/3 328/11/3
f 330/8/4 331/8/4 332/8/4
f 332/8/4 331/8/4 333/8/4
f 334/8/4 335/8/4 336/8/4
f 336/8/4 335/8/4 337/8/4
f 336/8/4 337/8/4 340/8/4
f 340/8/4 337/8/4 341/8/4
f 338/4/4 339/4/4 342/4/4
f 342/4/4 339/4/4 343/4/4
f 340/8/4 341/8/4 344/8/4
f 344/8/4 341/8/4 345/8/4
f 346/8/4 347/8/4 354/8/4
f 354/8/4 347/8/4 355/8/4
f 348/4/4 349/4/4 356/4/4
f 356/4/4 349/4/4 357/4/4
f 350/4/4 351/4/4 358/4/4
f 358/4/4 351/4/4 359/4/4
f 352/4/4 353/4/4 360/4/4
f 360/4/4 353/4/4 361/4/4
f 362/4/4 363/4/4 364/4/4
f 364/4/4 363/4/4 365/4/4
f 366/1/4 367/1/4 370/1/4
f 370/1/4 367/1/4 371/1/4
f 368/4/4 369/4/4 372/4/4
f 372/4/4 369/4/4 373/4/4
f 370/4/4 371/4/4 374/4/4
f 374/4/4 371/4/4 375/4/4
f 376/11/4 377/11/4 378/11/4
f 378/11/4 377/11/4 379/11/4
f 380/7/4 381/7/4 382/7/4
f 382/7/4 381/7/4 383/7/4
f 384/11/4 385/11/4 386/11/4
f 386/11/4 385/11/4 387/11/4
f 386/9/4 387/9/4 388/9/4
f 388/9/4 387/9/4 389/9/4
f 390/11/4 391/11/4 392/11/4
f 392/11/4 391/11/4 393/11/4
f 394/11/4 395/11/4 398/11/4
f 398/11/4 395/11/4 399/11/4
f 396/11/4 397/11/4 400/11/4
f 400/11/4 397/11/4 401/11/4
f 402/11/4 403/11/4 404/11/4
f 404/11/4 403/11/4 405/11/4
f 406/11/4 407/11/4 408/11/4
f 408/11/4 407/11/4 409/11/4
f 410/11/4 411/11/4 414/11/4
f 411/5/4 412/5/4 415/5/4
f 414/11/4 411/11/4 415/11/4
f 415/5/4 412/5/4 416/5/4
f 413/11/4 414/11/4 418/11/4
f 418/11/4 414/11/4 419/11/4
f 413/11/4 418/11/4 420/11/4
f 413/11/4 420/11/4 422/11/4
f 420/11/4 421/11/4 422/11/4
f 422/11/4 421/11/4 423/11/4
f 416/11/4 417/11/4 425/11/4
f 425/11/4 417/11/4 426/11/4
f 423/11/4 424/11/4 427/11/4
f 424/5/4 425/5/4 428/5/4
f 427/11/4 424/11/4 428/11/4
f 428/5/4 425/5/4 429/5/4
f 430/11/4 431/11/4 434/11/4
f 434/11/4 431/11/4 435/11/4
f 431/5/4 432/5/4 436/5/4
f 435/11/4 431/11/4 436/11/4
f 434/11/4 435/11/4 437/11/4
f 433/11/4 434/11/4 437/11/4
f 437/11/4 435/11/4 438/11/4
f 438/11/4 435/11/4 439/11/4
f 436/5/4 432/5/4 440/5/4
f 438/11/4 439/11/4 441/11/4
f 439/11/4 440/11/4 441/11/4
f 440/5/4 432/5/4 442/5/4
f 441/11/4 440/11/4 442/11/4
f 442/5/4 432/5/4 443/5/4
f 444/5/4 445/5/4 446/5/4
f 446/5/4 445/5/4 447/5/4
f 452/11/5 449/11/5 448/11/5
f 453/11/5 449/11/5 452/11/5
f 454/11/5 451/11/5 450/11/5
f 455/11/5 451/11/5 454/11/5
f 460/11/5 457/11/5 456/11/5
f 461/11/5 457/11/5 460/11/5
f 462/9/5 458/9/5 457/9/5
f 462/11/5 457/11/5 461/11/5
f 463/11/5 459/11/5 458/11/5
f 463/9/5 458/9/5 462/9/5
f 464/11/5 459/11/5 463/11/5
f 469/11/5 466/11/5 465/11/5
f 469/11/5 468/11/5 467/11/5
f 469/11/5 467/11/5 466/11/5
f 470/11/5 468/11/5 469/11/5
f 473/8/5 472/8/5 471/8/5
f 474/8/5 472/8/5 473/8/5
f 478/2/5 476/2/5 475/2/5
f 478/2/5 477/2/5 476/2/5
f 479/2/5 477/2/5 478/2/5
f 484/8/5 481/8/5 480/8/5
f 485/8/5 481/8/5 484/8/5
f 486/8/5 483/8/5 482/8/5
f 487/8/5 483/8/5 486/8/5
f 490/4/5 489/4/5 488/4/5
f 491/4/5 489/4/5 490/4/5
f 494/4/5 493/4/5 492/4/5
f 495/4/5 493/4/5 494/4/5
f 498/4/5 497/4/5 496/4/5
f 499/4/5 497/4/5 498/4/5
f 503/4/5 501/4/5 500/4/5
f 504/1/5 502/1/5 501/1/5
f 504/4/5 501/4/5 503/4/5
f 505/1/5 502/1/5 504/1/5
f 506/11/5 505/11/5 504/11/5
f 507/11/5 505/11/5 506/11/5
f 508/11/5 505/11/5 507/11/5
f 509/11/5 505/11/5 508/11/5
f 512/4/5 511/4/5 510/4/5
f 513/4/5 511/4/5 512/4/5
f 519/11/5 515/11/5 514/11/5
f 520/1/5 516/1/5 515/1/5
f 520/11/5 515/11/5 519/11/5
f 521/4/5 517/4/5 516/4/5
f 521/1/5 516/1/5 520/1/5
f 522/4/5 517/4/5 521/4/5
f 524/11/5 520/11/5 519/11/5
f 524/11/5 519/11/5 518/11/5
f 525/11/5 520/11/5 524/11/5
f 526/11/5 520/11/5 525/11/5
f 527/11/5 524/11/5 523/11/5
f 527/11/5 525/11/5 524/11/5
f 528/11/5 525/11/5 527/11/5
f 531/11/5 527/11/5 523/11/5
f 532/11/5 527/11/5 531/11/5
f 533/11/5 530/11/5 529/11/5
f 534/11/5 530/11/5 533/11/5
f 537/11/5 536/11/5 535/11/5
f 538/11/5 536/11/5 537/11/5
f 541/4/5 540/4/5 539/4/5
f 542/4/5 540/4/5 541/4/5
f 545/7/5 544/7/5 543/7/5
f 546/7/5 544/7/5 545/7/5
f 551/11/5 548/11/5 547/11/5
f 552/11/5 548/11/5 551/11/5
f 555/11/5 550/11/5 549/11/5
f 556/11/5 550/11/5 555/11/5
f 557/11/5 553/11/5 552/11/5
f 558/11/5 553/11/5 557/11/5
f 559/11/5 555/11/5 554/11/5
f 560/11/5 555/11/5 559/11/5
f 563/5/5 562/5/5 561/5/5
f 564/5/5 562/5/5 563/5/5
f 567/4/5 566/4/5 565/4/5
f 568/4/5 566/4/5 567/4/5
f 572/5/5 570/5/5 569/5/5
f 572/5/5 571/5/5 570/5/5
f 573/5/5 571/5/5 572/5/5
f 574/5/5 571/5/5 573/5/5
f 575/5/5 571/5/5 574/5/5
f 576/5/5 575/5/5 574/5/5
f 577/5/5 575/5/5 576/5/5
f 578/8/6 579/8/6 580/8/6
f 580/8/6 579/8/6 581/8/6
f 582/8/6 583/8/6 586/8/6
f 584/8/6 585/8/6 586/8/6
f 583/8/6 584/8/6 586/8/6
f 586/8/6 585/8/6 587/8/6
f 587/8/6 585/8/6 588/8/6
f 588/8/6 585/8/6 589/8/6
f 590/4/6 591/4/6 592/4/6
f 592/4/6 591/4/6 593/4/6
f 594/8/6 595/8/6 596/8/6
f 596/8/6 595/8/6 597/8/6
f 598/4/6 599/4/6 600/4/6
f 600/4/6 599/4/6 601/4/6
f 602/4/6 603/4/6 604/4/6
f 604/4/6 603/4/6 605/4/6
f 606/4/6 607/4/6 609/4/6
f 607/1/6 608/1/6 610/1/6
f 609/4/6 607/4/6 610/4/6
f 610/1/6 608/1/6 611/1/6
f 610/11/6 611/11/6 612/11/6
f 612/11/6 611/11/6 613/11/6
f 613/11/6 611/11/6 614/11/6
f 615/4/6 616/4/6 617/4/6
f 617/4/6 616/4/6 618/4/6
f 619/11/6 620/11/6 624/11/6
f 620/1/6 621/1/6 625/1/6
f 624/11/6 620/11/6 625/11/6
f 621/4/6 622/4/6 626/4/6
f 625/1/6 621/1/6 626/1/6
f 626/4/6 622/4/6 627/4/6
f 624/11/6 625/11/6 629/11/6
f 623/11/6 624/11/6 629/11/6
f 629/11/6 625/11/6 630/11/6
f 630/11/6 625/11/6 631/11/6
f 628/11/6 629/11/6 632/11/6
f 629/11/6 630/11/6 632/11/6
f 632/11/6 630/11/6 633/11/6
f 633/11/6 630/11/6 634/11/6
f 635/7/6 636/7/6 637/7/6
f 637/7/6 636/7/6 638/7/6
f 637/10/6 638/10/6 639/10/6
f 639/10/6 638/10/6 640/10/6
f 641/4/6 642/4/6 643/4/6
f 643/4/6 642/4/6 644/4/6
f 645/7/6 646/7/6 647/7/6
f 647/7/6 646/7/6 648/7/6
f 649/5/6 650/5/6 651/5/6
f 651/5/6 650/5/6 652/5/6
f 653/4/6 654/4/6 655/4/6
f 655/4/6 654/4/6 656/4/6
f 657/5/6 658/5/6 660/5/6
f 660/5/6 658/5/6 661/5/6
f 659/5/6 660/5/6 663/5/6
f 663/5/6 660/5/6 664/5/6
f 661/5/6 662/5/6 665/5/6
f 665/5/6 662/5/6 666/5/6
f 664/5/6 665/5/6 667/5/6
f 667/5/6 665/5/6 668/5/6
f 669/11/6 670/11/6 671/11/6
f 671/11/6 670/11/6 672/11/6
