# MagicaVoxel @ Ephtracy

# material
mtllib Arrow.mtl
usemtl palette

# normals
vn -1 0 0
vn 1 0 0
vn 0 0 1
vn 0 0 -1
vn 0 -1 0
vn 0 1 0

# texcoords
vt 0.701172 0.5
vt 0.958984 0.5
vt 0.974609 0.5

# verts
v -4 -0.5 0.5
v -4 -0.5 -0.5
v -4 0.5 0.5
v -4 0.5 -0.5
v -3 -1.5 0.5
v -3 -1.5 -0.5
v -3 -0.5 1.5
v -3 -0.5 0.5
v -3 -0.5 -0.5
v -3 -0.5 -1.5
v -3 0.5 1.5
v -3 0.5 0.5
v -3 0.5 -0.5
v -3 0.5 -1.5
v -3 1.5 0.5
v -3 1.5 -0.5
v 3 -1.5 0.5
v 3 -1.5 -0.5
v 3 -0.5 0.5
v 3 -0.5 -0.5
v 3 0.5 0.5
v 3 0.5 -0.5
v 3 1.5 0.5
v 3 1.5 -0.5
v -2 -1.5 0.5
v -2 -1.5 -0.5
v -2 -0.5 1.5
v -2 -0.5 0.5
v -2 -0.5 -0.5
v -2 -0.5 -1.5
v -2 0.5 1.5
v -2 0.5 0.5
v -2 0.5 -0.5
v -2 0.5 -1.5
v -2 1.5 0.5
v -2 1.5 -0.5
v 3 -0.5 0.5
v 3 -0.5 -0.5
v 3 0.5 0.5
v 3 0.5 -0.5
v 4 -1.5 0.5
v 4 -1.5 -0.5
v 4 -0.5 0.5
v 4 -0.5 -0.5
v 4 0.5 0.5
v 4 0.5 -0.5
v 4 1.5 0.5
v 4 1.5 -0.5
v -3 -0.5 1.5
v -3 0.5 1.5
v -2 -0.5 1.5
v -2 0.5 1.5
v -4 -0.5 0.5
v -4 0.5 0.5
v -3 -1.5 0.5
v -3 -0.5 0.5
v -3 0.5 0.5
v -3 1.5 0.5
v -2 -1.5 0.5
v -2 -0.5 0.5
v -2 0.5 0.5
v -2 1.5 0.5
v 2 -0.5 0.5
v 2 0.5 0.5
v 3 -1.5 0.5
v 3 -0.5 0.5
v 3 0.5 0.5
v 3 1.5 0.5
v 4 -1.5 0.5
v 4 -0.5 0.5
v 4 0.5 0.5
v 4 1.5 0.5
v -4 -0.5 -0.5
v -4 0.5 -0.5
v -3 -1.5 -0.5
v -3 -0.5 -0.5
v -3 0.5 -0.5
v -3 1.5 -0.5
v -2 -1.5 -0.5
v -2 -0.5 -0.5
v -2 0.5 -0.5
v -2 1.5 -0.5
v 2 -0.5 -0.5
v 2 0.5 -0.5
v 3 -1.5 -0.5
v 3 -0.5 -0.5
v 3 0.5 -0.5
v 3 1.5 -0.5
v 4 -1.5 -0.5
v 4 -0.5 -0.5
v 4 0.5 -0.5
v 4 1.5 -0.5
v -3 -0.5 -1.5
v -3 0.5 -1.5
v -2 -0.5 -1.5
v -2 0.5 -1.5
v -3 -1.5 0.5
v -2 -1.5 0.5
v 3 -1.5 0.5
v 4 -1.5 0.5
v -3 -1.5 -0.5
v -2 -1.5 -0.5
v 3 -1.5 -0.5
v 4 -1.5 -0.5
v -3 -0.5 1.5
v -2 -0.5 1.5
v -4 -0.5 0.5
v -3 -0.5 0.5
v -2 -0.5 0.5
v 2 -0.5 0.5
v 3 -0.5 0.5
v -4 -0.5 -0.5
v -3 -0.5 -0.5
v -2 -0.5 -0.5
v 2 -0.5 -0.5
v 3 -0.5 -0.5
v -3 -0.5 -1.5
v -2 -0.5 -1.5
v 3 0.5 0.5
v 4 0.5 0.5
v 3 0.5 -0.5
v 4 0.5 -0.5
v 3 -0.5 0.5
v 4 -0.5 0.5
v 3 -0.5 -0.5
v 4 -0.5 -0.5
v -3 0.5 1.5
v -2 0.5 1.5
v -4 0.5 0.5
v -3 0.5 0.5
v -2 0.5 0.5
v 2 0.5 0.5
v 3 0.5 0.5
v -4 0.5 -0.5
v -3 0.5 -0.5
v -2 0.5 -0.5
v 2 0.5 -0.5
v 3 0.5 -0.5
v -3 0.5 -1.5
v -2 0.5 -1.5
v -3 1.5 0.5
v -2 1.5 0.5
v 3 1.5 0.5
v 4 1.5 0.5
v -3 1.5 -0.5
v -2 1.5 -0.5
v 3 1.5 -0.5
v 4 1.5 -0.5

# faces
f 3/3/1 2/3/1 1/3/1
f 4/3/1 2/3/1 3/3/1
f 8/3/1 6/3/1 5/3/1
f 9/3/1 6/3/1 8/3/1
f 11/3/1 8/3/1 7/3/1
f 12/3/1 8/3/1 11/3/1
f 13/3/1 10/3/1 9/3/1
f 14/3/1 10/3/1 13/3/1
f 15/3/1 13/3/1 12/3/1
f 16/3/1 13/3/1 15/3/1
f 19/2/1 18/2/1 17/2/1
f 20/2/1 18/2/1 19/2/1
f 23/2/1 22/2/1 21/2/1
f 24/2/1 22/2/1 23/2/1
f 25/3/2 26/3/2 28/3/2
f 28/3/2 26/3/2 29/3/2
f 27/3/2 28/3/2 31/3/2
f 31/3/2 28/3/2 32/3/2
f 29/3/2 30/3/2 33/3/2
f 33/3/2 30/3/2 34/3/2
f 32/3/2 33/3/2 35/3/2
f 35/3/2 33/3/2 36/3/2
f 37/2/2 38/2/2 39/2/2
f 39/2/2 38/2/2 40/2/2
f 41/2/2 42/2/2 43/2/2
f 43/2/2 42/2/2 44/2/2
f 45/2/2 46/2/2 47/2/2
f 47/2/2 46/2/2 48/2/2
f 51/3/3 50/3/3 49/3/3
f 52/3/3 50/3/3 51/3/3
f 56/3/3 54/3/3 53/3/3
f 57/3/3 54/3/3 56/3/3
f 59/3/3 56/3/3 55/3/3
f 60/3/3 56/3/3 59/3/3
f 61/3/3 58/3/3 57/3/3
f 62/3/3 58/3/3 61/3/3
f 63/1/3 61/1/3 60/1/3
f 64/1/3 61/1/3 63/1/3
f 66/2/3 64/2/3 63/2/3
f 67/2/3 64/2/3 66/2/3
f 69/2/3 66/2/3 65/2/3
f 70/2/3 66/2/3 69/2/3
f 71/2/3 68/2/3 67/2/3
f 72/2/3 68/2/3 71/2/3
f 73/3/4 74/3/4 76/3/4
f 76/3/4 74/3/4 77/3/4
f 75/3/4 76/3/4 79/3/4
f 79/3/4 76/3/4 80/3/4
f 77/3/4 78/3/4 81/3/4
f 81/3/4 78/3/4 82/3/4
f 80/1/4 81/1/4 83/1/4
f 83/1/4 81/1/4 84/1/4
f 83/2/4 84/2/4 86/2/4
f 86/2/4 84/2/4 87/2/4
f 85/2/4 86/2/4 89/2/4
f 89/2/4 86/2/4 90/2/4
f 87/2/4 88/2/4 91/2/4
f 91/2/4 88/2/4 92/2/4
f 93/3/4 94/3/4 95/3/4
f 95/3/4 94/3/4 96/3/4
f 101/3/5 98/3/5 97/3/5
f 102/3/5 98/3/5 101/3/5
f 103/2/5 100/2/5 99/2/5
f 104/2/5 100/2/5 103/2/5
f 108/3/5 106/3/5 105/3/5
f 109/3/5 106/3/5 108/3/5
f 112/3/5 108/3/5 107/3/5
f 113/3/5 108/3/5 112/3/5
f 114/1/5 110/1/5 109/1/5
f 115/2/5 111/2/5 110/2/5
f 115/1/5 110/1/5 114/1/5
f 116/2/5 111/2/5 115/2/5
f 117/3/5 114/3/5 113/3/5
f 118/3/5 114/3/5 117/3/5
f 121/2/5 120/2/5 119/2/5
f 122/2/5 120/2/5 121/2/5
f 123/2/6 124/2/6 125/2/6
f 125/2/6 124/2/6 126/2/6
f 127/3/6 128/3/6 130/3/6
f 130/3/6 128/3/6 131/3/6
f 129/3/6 130/3/6 134/3/6
f 134/3/6 130/3/6 135/3/6
f 131/1/6 132/1/6 136/1/6
f 132/2/6 133/2/6 137/2/6
f 136/1/6 132/1/6 137/1/6
f 137/2/6 133/2/6 138/2/6
f 135/3/6 136/3/6 139/3/6
f 139/3/6 136/3/6 140/3/6
f 141/3/6 142/3/6 145/3/6
f 145/3/6 142/3/6 146/3/6
f 143/2/6 144/2/6 147/2/6
f 147/2/6 144/2/6 148/2/6
